<svg xmlns="http://www.w3.org/2000/svg">
<!-- L'Atelier du Désert · logotipo definitivo (30/09/2026), vectorizado del original del usuario (docs/brand/logo-original.png). Coordenadas en píxeles del original. -->
<symbol id="emblem" viewBox="581 92 374 456"><path fill-rule="evenodd" d="M757.1 546.5c-1.1-.1-3.6-.3-5.6-.5c-3.6-.3-12.4-1.4-12.7-1.6c-.1-.1-1.1-.3-2.3-.5c-3.3-.6-6.1-1.3-8.9-2c-1.4-.4-2.8-.8-3.2-.9c-1.9-.5-5.3-1.5-7.9-2.5c-4.4-1.5-5.1-1.7-5.9-2.1c-.4-.2-.9-.4-1-.4c-.2 0-3.1-1.1-4.6-1.8c-3.8-1.7-14.7-7.1-16.4-8c-4.9-2.9-11.1-6.8-13.2-8.3c-8.8-6.4-15.2-11.6-21.6-17.5c-4-3.6-11.6-11.6-15.3-15.9c-1-1.2-2.1-2.5-2.5-2.9c-2.2-2.5-6.4-7.9-9.1-11.8c-.2-.4-1.3-2-2.5-3.7c-1.2-1.6-3-4.4-4.1-6.2c-1-1.7-2.1-3.4-2.3-3.8c-3.1-5-11-19.7-11-20.4c0-.1-.6-1.5-1.4-3.1c-2.4-5-3.8-8.3-5.1-11.8c-.2-.8-.9-2.4-1.4-3.7c-.5-1.2-1-2.6-1.1-3c-.1-.4-.5-1.5-.9-2.5c-1.3-3.5-3.1-9.2-4.6-14.4c-.2-.8-.6-2.2-.8-3c-2.3-7.7-5.1-19.9-5.7-24.7c-.2-1.2-.3-2.2-.4-2.3c-.4-.6-1.8-12.6-2.5-20.3c-.2-2.5-.5-5.8-.6-7.4c-.4-4.1-.6-26-.3-31c.5-7.1 1-13.8 1.3-15.3c.2-.8.4-2.8.5-4.4c.1-1.6.4-3.9.6-5.2c.6-3.7 1.4-8.4 1.5-9.6c.2-1.4 1.1-5.9 1.5-8c.2-.9.5-2.2.6-3c.6-3 3.1-13.1 4.3-17.2c2.2-7.4 4.6-14.6 7.5-22.7c.8-2.1 2.2-5.6 3.3-8.3c.4-.8 1-2.3 1.4-3.1c1.4-3.4 7.8-16.5 9.1-18.8c.5-.9 1.9-3.4 3.2-5.7c1.3-2.2 2.5-4.4 2.8-4.7c.2-.3.8-1.3 1.3-2.1c1.8-2.8 2.1-3.3 4-6.3c1.1-1.6 3.2-4.7 4.8-6.7c1.5-2.1 3-4.2 3.4-4.6c.3-.5 2-2.7 3.8-4.8c12.6-15.2 26.2-27.8 39.9-36.8c3.7-2.5 6.1-4.1 6.5-4.3c.2-.1.8-.4 1.4-.8c.5-.3 1.6-.9 2.5-1.4c.8-.4 2.6-1.4 4-2.2c5.4-3.1 11.9-6.1 19.2-8.9c.8-.3 2.3-.8 3.2-1.2c5.3-2.1 12.9-4.3 19.3-5.6c2-.4 4.9-1 6.5-1.3c1.7-.3 3.8-.7 4.8-.9c1.9-.4 7.8-1 13-1.4c4.1-.2 16.8-.2 21 0c4.4.4 10.7 1 12.3 1.3c.7.2 2.4.4 3.6.6c2.2.3 3.3.6 7.9 1.5c2.8.6 6.9 1.6 9.2 2.3c4 1.1 14.1 4.6 16.2 5.6c.3.1 1.4.6 2.4 1c3.5 1.5 5.4 2.4 9.9 4.6c5.5 2.8 6.7 3.5 10.6 5.8c8.4 5 19 12.8 27.2 20.2c5.8 5.1 13.9 13.6 19.3 20c2.5 3.1 4 4.9 8 10.2c2.5 3.3 4.8 6.6 7.3 10.6c.7 1 1.7 2.6 2.3 3.5c.6 1 1.3 2.1 1.6 2.6c.2.4.5 1 .7 1.2c.8 1.4 3.1 5.3 3.1 5.4c0 .1.7 1.3 1.5 2.8c1.7 3 5.8 11 6.9 13.6c.4.9 1 2.3 1.4 3.1c.3.9.9 2.1 1.3 2.9c1.1 2.4 3.1 7.3 4 9.9c.2.5.6 1.6.9 2.3c.3.8.7 1.9.9 2.4c.2.6.8 2.5 1.5 4.3c1.6 4.6 2.5 7.2 3.1 9.3c.3 1.1.7 2.7 1 3.6c.3.9.7 2.5 1 3.4c.7 2.6 1.2 4.4 1.9 7.4c.3 1.5.8 3.7 1.1 4.8c.2 1.1.7 3 1 4.4c.3 1.3.7 3.1.9 4c.2.8.5 2.3.6 3.2c.3 2.2.9 6.2 1.4 8.6c.2 1.1.5 3.3.6 4.8c.2 1.5.4 3.2.5 3.8c.1.7.3 2.7.5 4.7c.1 1.9.4 4.3.5 5.2c.4 2.6 1 18.6 1 24.7c0 5.8-.6 19.4-1 22.6c-.1 1.1-.4 3.5-.5 5.4c-.1 1.8-.4 4.6-.6 6.2c-.7 4.9-1.7 11.1-1.9 12.1c-.1.6-.3 1.8-.5 2.8c-.1.9-.4 2.5-.6 3.3c-.2.9-.6 2.8-.9 4.2c-.7 3.1-1.6 7.3-2.1 9.1c-.8 3-1.4 5.3-2.2 7.9c-.4 1.5-.9 3.3-1.1 4.1c-.5 1.6-3.3 10.1-4.2 12.5c-.3.9-1 2.7-1.5 4c-1 2.8-3.5 9-4 10.2c-.2.4-.4.8-.4.9c0 .1-.5 1.2-1.1 2.6c-.7 1.3-1.4 2.9-1.7 3.5c-1.8 4-6.4 13-6.9 13.6c-.1.2-.8 1.3-1.4 2.6c-.7 1.2-1.4 2.4-1.6 2.6c-.1.2-.3.5-.3.6c0 .1-3.9 6.4-5.3 8.4c-.5.8-1.8 2.8-3 4.6c-4.6 6.8-9.9 13.6-17.3 21.8c-3.1 3.5-11.8 12.2-14.4 14.5c-.8.7-2.2 1.9-3.1 2.6c-2 1.9-7.9 6.6-9 7.3c-.5.3-1.9 1.4-3.2 2.3c-3.5 2.7-8.8 6.2-13.2 8.8c-1.6.9-3.3 1.9-3.9 2.3c-1 .6-9.7 4.9-12.8 6.4c-4.8 2.2-5.9 2.7-7.9 3.4c-.7.3-1.9.7-2.7 1c-3.4 1.3-12.4 4.1-16.4 5.2c-6.9 1.7-16.9 3.4-23.2 4c-5.2.4-22.9.6-26.5.3zm21.5-7.5c2.1-.1 4.7-.3 5.9-.5c1.2-.1 3.1-.4 4.4-.5c2.2-.3 3.6-.5 8.9-1.5c3.6-.7 9.7-2.2 11.8-2.9c.6-.2 2-.6 3.3-1c1.2-.3 2.8-.9 3.5-1.1c1.4-.5 3-1.1 5.5-2c3.3-1.2 8.4-3.4 11.2-4.8c1.1-.6 3.1-1.6 4.5-2.3c1.4-.6 4-2.1 5.8-3.1c4.5-2.6 4.1-2.4 7.1-4.3c.8-.5 1.6-1 1.8-1.1c1.3-.8 4-2.6 5.2-3.4c.8-.6 1.9-1.4 2.5-1.8c5.4-3.8 15.2-12.2 21-17.9c5.7-5.7 13.3-14.3 17.4-19.8c1.9-2.5 3.9-5.2 4.5-6c1.1-1.5 6.5-9.7 7.2-10.9c.2-.4.7-1.2 1-1.7c.4-.6.7-1.2.8-1.4c.1-.2 1.5-2.7 3.1-5.5c3.5-6.2 6.4-12.1 10-20.3c1.7-3.7 2.1-4.5 3.5-8.6c.6-1.5 1.3-3.5 1.7-4.4c.3-.8.9-2.6 1.3-3.8c.4-1.3 1.2-3.3 1.6-4.6c1.1-3 2.5-7.5 3.1-10.1c.3-1.1.8-2.8 1.1-3.9c.7-2.6 1.1-4.5 1.7-7c.3-1.2.6-2.5.7-2.8c.1-.3.3-1.2.4-2c.1-.8.3-1.6.4-1.9c.3-.7 2.3-12.3 3-17.1c.9-6.5 1.6-13.7 2.3-24.9c.2-4.5.2-19.6 0-24.3c-.6-8.9-.8-12.4-1.2-15.2c-.2-1.6-.4-3.7-.5-4.5c-.1-1.6-.8-6.2-1.7-12.5c-.6-3.5-1.3-7.2-3.3-16.2c-1.1-5.1-1.4-6.2-1.5-6.4c0-.1-.5-1.7-.9-3.5c-1.1-4-1.6-6-2.1-7.4c-.1-.5-.8-2.7-1.5-4.7c-1.3-4.3-2.1-6.6-3-9c-.4-1-.8-2.2-1-2.8c-.2-.5-.5-1.3-.7-1.8c-.2-.4-.4-.9-.4-1c0-1.1-6.5-15.8-10.1-22.9c-2.9-5.7-8.2-15.1-10.4-18.4c-.7-1-1.3-2.1-1.4-2.3c-.4-.8-6.2-9.2-8.7-12.6c-3.8-5.2-12-14.6-17.1-19.7c-3.4-3.5-11.6-11-13.7-12.6c-.6-.4-2.3-1.7-3.8-2.9c-3.2-2.5-6.3-4.8-8.7-6.3c-.9-.5-2.9-1.8-4.4-2.8c-1.6-1-3.2-2.1-3.7-2.3c-.5-.3-1-.6-1.2-.7c-3.3-2.1-12.9-6.9-16.6-8.4c-1.6-.7-3-1.3-3.3-1.4c-.6-.2-3.3-1.3-4.5-1.7c-.4-.2-1.6-.6-2.5-.9c-8.8-3.2-18.3-5.6-29.4-7.3c-8.8-1.3-22.2-1.7-30.9-1c-11.1.9-21.5 2.7-29 4.9c-6.9 2-10.5 3.2-13.8 4.5c-3.3 1.3-5.1 2-6.2 2.5c-.3.1-2.3 1-4.5 2c-2.2.9-4.5 2-5.2 2.4c-.7.4-2.3 1.2-3.7 1.9c-4.7 2.5-6.8 3.8-13.2 8c-6.3 4.2-13.5 9.7-19.1 14.8c-6.1 5.4-15.6 15.5-20.9 22.2c-3.5 4.3-9.5 12.6-10.7 14.7c-.5.8-1.8 2.8-2.9 4.6c-1.2 1.8-2.3 3.6-2.5 3.9c-.2.3-.9 1.6-1.6 2.8c-.7 1.2-1.3 2.3-1.3 2.4c0 0-.4.8-1 1.8c-.5.9-1.3 2.3-1.7 3.1c-.5.9-1.1 2-1.5 2.7c-1.2 2.1-4.8 9.5-4.8 9.8c0 .1-.5 1.2-1.1 2.4c-.6 1.3-1.4 3.1-1.8 4c-.9 1.9-3.1 7.3-3.1 7.6c0 .1-.2.6-.4 1c-.7 1.6-1.6 4.1-3.4 9.4c-1 3-2 6-2.2 6.8c-.5 1.4-1.6 4.9-2.1 7.1c-.2.7-.7 2.3-1 3.6c-.8 2.8-1.7 6.3-2.4 9.4c-.3 1.3-.7 3.3-1 4.5c-.3 1.2-.8 3.8-1.1 5.7c-.4 2-.8 4.4-1 5.5c-.6 3.3-1.4 8.1-1.5 10.2c-.1 1-.3 2.4-.4 3.1c-.1.7-.4 3.1-.6 5.5c-.2 2.3-.5 5.3-.6 6.6c-.5 4.9-.9 18.5-.7 25c.2 8.7.6 16.4.9 18.5c.1.9.4 3.1.5 5c.1 1.9.4 4.2.5 5.1c.9 6.2 1.6 10.7 1.9 12c.2.8.4 2 .5 2.6c.2 1.4 1.4 7.1 3 14.2c.5 2.2 1.5 5.9 2.2 8.5c.4 1.2.8 2.8 1 3.5c.4 1.4 3.8 11.6 4.8 14.2c.3 1 .8 2.4 1.1 3.2c.3.7.7 1.9 1 2.7c.3.8.7 1.9 1 2.6c.4 1.2 1.7 4.2 3.1 7.1c.3.8 1 2.3 1.4 3.3c1 2.4 4.6 9.7 5.6 11.5c.8 1.3 1.9 3.4 4 7.2c.5 1.1 1 2 1.1 2.2c.2.2.7 1 1.7 2.7c.6 1.2 6 9.4 7.7 11.8c.5.7 1.3 1.7 1.7 2.4c1.5 2 6.8 8.7 9.8 12.3c3.5 4.1 13.3 14.2 18 18.4c6.8 6.1 15 12.3 23.3 17.4c.5.4 1.3.9 1.6 1.1c4.1 2.8 15.7 8.7 21.1 10.9c2.4.9 4.8 1.8 5.3 2.1c.6.3 1.2.5 1.4.5c.1 0 .6.2 1 .4c1 .4 3.4 1.3 5 1.7c4.3 1.3 6.5 1.9 12.1 3.4c2.4.6 5.3 1.2 8.3 1.6c1.4.2 2.6.5 2.8.5c.2.1 1.6.2 3 .4c1.4.1 3.4.4 4.3.5c.9.2 2.9.4 4.4.5c3.9.3 18.6.3 22.9 0zm.6-25.6c-2.1-.2-4.7-.5-5.7-.7c-1-.1-3.3-.5-5-.7c-8.2-1.2-17.9-3.6-26-6.5c-4.9-1.7-5.1-1.8-5.9-2.1c-.4-.2-.9-.4-1-.4c-.4 0-5.8-2.4-11.1-4.9c-1.6-.8-3.4-1.6-4-1.9c-1.7-.8-9.3-4.6-11.7-5.9c-1.2-.6-3.4-1.7-4.8-2.5c-4.1-2.2-4.4-2.3-4.8-2.5c-1.3-.9-7-4-11-6c-4.8-2.4-5.2-2.7-5.2-3.1c0-.3.6-.2 4.9.4c9.6 1.3 21.3.9 29.9-1.1c8-2 17.1-4.7 19.4-6c.2-.1 1.3-.6 2.3-1c6.6-2.8 15.5-7.4 21.6-11.3c1.1-.6 2-1.2 2.1-1.2c0 0 .4-.2.7-.5c.4-.2 3.3-2.1 6.3-4.1c3.1-2.1 6.5-4.3 7.4-5c1-.7 3.2-2.3 4.9-3.4c1.7-1.2 4.1-2.9 5.4-3.7c3.1-2.2 9.1-6.2 9.6-6.4c.2-.1 1.2-.6 2.1-1.3c4.6-2.8 10.8-6.2 14.5-7.8c.6-.3 1.6-.8 2.2-1c7.4-3.4 14.4-5.5 23.3-7.1c3-.5 4-.6 11.2-.6c6.8 0 8.3.1 11.4.6c10 1.5 16.8 3.3 26.3 6.8c1.6.6 3.4 1.3 4.1 1.5c.7.3 2.1.8 3 1.1c1 .4 2.2.8 2.8 1c.5.2 1.6.6 2.4.9c.7.3 1.9.7 2.6 1c5.9 2.2 6.5 2.5 6.6 2.9c.1.5-1.5 3.7-3.6 7.5c-2 3.4-2.9 5-3.3 5.9c-.6 1.2-8.1 12.2-9.9 14.7c-2.6 3.4-8.3 10.1-11.8 13.8c-5.2 5.6-14 13.2-20.5 17.8c-11 7.7-24.6 14.4-36.4 17.9c-1 .3-2.3.7-2.7.9c-1.3.4-4.7 1.2-8.3 2c-10.6 2.1-24.1 2.8-34.3 2zm-113.7-66.4c-3.7-.2-6.9-.7-12.1-1.8c-1.9-.4-4.3-.9-5.2-1.1c-.9-.2-2.1-.5-2.5-.8c-1.9-.9-8.6-5.9-9-6.6c-.6-.9-.3-.9 5.9.8c2.1.6 5.6 1.3 10 2c4.5.7 13.9.7 19.4 0c6.5-.9 10.6-1.7 17.1-3.4c2.1-.5 5.8-1.7 9.3-3c.9-.3 2.1-.7 2.5-.9c1.2-.4 3.9-1.5 4.5-1.7c.3-.1 1.1-.5 2-.8c3.2-1.4 12.9-6.1 15.9-7.7c.9-.5 2.2-1.3 3-1.7c.7-.4 1.9-1 2.6-1.4c2.1-1.2 10.9-6.2 11.8-6.8c1-.6 2.4-1.4 7.4-4.4c1.8-1.2 4.7-2.9 6.2-3.8c1.6-1 3-1.9 3.3-2c.3-.2.9-.6 1.4-.8c3.8-2.2 10.5-6.1 11.9-6.9c1-.5 2.7-1.4 3.8-2c4.9-2.6 10.3-5.2 12.8-6.2c2-.8 5.1-2 5.9-2.4c.5-.2 1-.4 1.2-.4c.2 0 .5-.1.7-.4c.3-.3.2-.4-.2-.7c-.2-.2-.7-.3-1-.3c-.3 0-1.3-.4-2.3-.8c-.9-.4-2.7-1.1-4-1.6c-1.3-.5-3-1.2-3.9-1.6c-.8-.4-2.3-1.1-3.1-1.4c-2.3-1-5.7-2.6-7.3-3.5c-1.5-.9-4.1-2.3-9-4.8c-4.5-2.4-4.8-2.6-5.3-2.8c-2.2-1.4-8.8-5-13.8-7.5c-7.6-3.7-8.3-4-12.3-5.5c-.8-.4-1.9-.8-2.3-.9c-.5-.2-1.8-.6-2.8-.9c-1-.3-2.4-.7-3.1-.9c-.6-.2-2.6-.5-4.3-.8c-4.2-.5-8.2-.2-10.4.8c-4.9 2.3-7.1 6-6.2 10.8c.5 2.9 1.8 5.1 5.4 9.1c2.8 3.2 4.8 6 5.9 8.3c1.4 2.9 1.5 3.4 1.6 7.1c.1 3.1.1 3.8-.4 5.5c-1.2 4.2-3.7 8.4-7.7 12.7c-1.2 1.2-6.6 5.7-8.2 6.8c-.6.3-1.4.9-2 1.3c-.9.7-3.4 2.2-5 3.1c-3.4 1.9-13.5 6.5-17.5 7.9c-3.3 1.1-10.2 2.9-13.5 3.6c-.7.1-2 .4-3 .6c-4.8 1-10.6 1.4-19.4 1.5c-4.7.1-10.2.1-12.2 0c-3.3-.2-3.6-.2-4.1-.8c-.4-.5-2.5-4.7-3.4-6.9c-.3-.8-.8-1.8-1.7-4c-.3-.6-.9-1.9-1.3-3c-.4-1-.9-2.2-1.1-2.6c-.2-.5-.4-1-.4-1.1c0-.2-.2-.7-.4-1.1c-.2-.4-.7-2-1.2-3.4c-.5-1.4-1.4-3.9-1.9-5.4c-.6-1.5-1.3-3.5-1.5-4.5c-.8-2.8-1.5-5.4-1.9-6.9c-.2-.7-.6-2.2-.9-3.4c-.3-1.1-.5-2.2-.4-2.4c.1-.2 1-.6 2-.9c1.7-.5 7.1-2.5 7.9-3c.3-.1 1.1-.5 1.9-.9c2.6-1.1 5.7-2.7 8.3-4.1c1.3-.8 2.6-1.5 2.9-1.6c.2-.1.7-.4 1.2-.7c1.9-1.1 5.1-3.1 5.5-3.3c.2-.1 1.1-.6 2.1-1.2c5.6-3.6 11.6-7.3 15.5-9.6c1.4-.9 3-1.9 3.5-2.2c.5-.4 1.9-1.2 3.1-1.8c1.2-.7 2.9-1.6 3.8-2.1c2.6-1.5 9.6-4.8 12.6-6c1.5-.6 3.3-1.3 3.9-1.5c1.1-.4 3.1-1.1 5.8-1.8c5.4-1.6 13.4-2.5 20.1-2.4c7.4.2 13.7 1.1 21.6 3.2c2.7.8 9 2.7 9.9 3.1c.5.2 1 .4 1.3.4c.2 0 .7.2 1.1.4c.5.2 1.9.7 3.2 1.2c4.6 1.8 8.7 3.8 17 8.1c1.6.8 4.2 2.2 5.9 3c1.6.9 3.1 1.7 3.2 1.8c1.2.8 9.9 5.2 14.6 7.3c.6.2 1.6.7 2.2 1c1.3.5 2.9 1.2 4.1 1.8c.5.2 1.2.4 1.5.5c.3.1.7.3.9.4c.5.4 8.7 3.1 10.8 3.6c3.9.9 7.8 1.7 10 2c6.5 1 8.8 1.4 9.8 1.6c.6.2 2.1.3 3.3.4c1.2.1 2.3.3 2.4.5c.2.3-.7.8-1.6 1c-.4.1-2.4.8-4.5 1.5c-2 .7-4.2 1.4-4.8 1.6c-1.4.4-4.1 1.5-5.2 1.9c-.4.2-1.5.6-2.5 1c-.9.4-1.9.8-2.1.9c-.2.1-.9.4-1.5.7c-.6.3-2.2 1-3.6 1.6c-1.3.7-2.5 1.2-2.6 1.2c-.2 0-8.6 4.2-8.9 4.5c-.3.2-3.2 1.8-7.5 4c-3 1.6-5 2.6-6.4 3.5c-.5.2-1.7.9-2.6 1.5c-1 .6-3.3 2-5.3 3.1c-1.9 1.2-5.4 3.2-7.7 4.6c-2.3 1.3-4.5 2.6-4.9 2.8c-.8.5-2.3 1.4-3.8 2.2c-.6.3-1.8 1-2.6 1.5c-.8.5-1.9 1.1-2.4 1.4c-.4.2-1.2.7-1.6.9c-.4.3-1.1.7-1.6 1c-1.6.8-3.9 2.1-4.9 2.7c-5.3 3.1-17.5 8.9-24.7 11.9c-.7.2-1.7.7-2.3.9c-.5.2-1.7.7-2.5 1c-.8.3-1.8.7-2.2.9c-.4.1-1.8.6-3 1c-1.3.4-2.8.9-3.5 1.1c-1.2.4-3 1-6.1 1.9c-2.6.7-8.2 2-13.9 3c-4.3.8-11 1-18.4.6zm258.7-62.4c-.7-.2-2.1-.5-3.1-.7c-.9-.2-2.7-.6-3.8-.9c-5-1.2-6.3-1.6-9.1-2.1c-5.6-1.3-8.9-1.9-12.7-2.5c-2.1-.4-4.6-.8-5.4-.9c-.8-.1-2.4-.4-3.5-.5c-1.1-.1-3.3-.4-5-.6c-4.9-.6-12.1-.9-21.5-.9c-4.9 0-8.9 0-9.1-.1c-.1-.1-2.6-.3-5.4-.5c-9.9-.7-12.5-.9-14.5-1.3c-1.1-.2-2.8-.5-3.9-.6c-2.7-.4-10.3-2-12.1-2.6c-.5-.2-2-.7-3.3-1c-5.1-1.5-9.7-3-15.7-5.3c-3.7-1.5-17.7-8.3-24.7-12.1c-1-.5-2.8-1.5-4-2.1c-1.3-.7-3.1-1.6-4-2.2c-1-.5-3.7-1.9-6-3.1c-7.8-3.9-7.8-3.9-5.5-5.1c.8-.4 1.9-1 2.4-1.3c.5-.3 1.6-1 2.4-1.4c1.3-.8 7.1-4.6 10.3-6.9c.8-.6 1.8-1.3 2.4-1.7c.5-.4 1.5-1.1 2.2-1.6c.7-.5 2.8-1.9 4.8-3.2c10.5-6.9 15.3-9.3 23.7-11.8c5.1-1.5 9.7-2 15.4-1.6c4.7.3 7.8.9 12.9 2.6c1.6.6 2.4.9 5.1 2.1c4.7 2 9.7 5 17.5 10.4c3.5 2.4 19.8 15.2 21.2 16.6c.2.2.8.6 1.3 1c.5.4 2.4 1.9 4.4 3.4c5 4 13.5 10.2 18.6 13.6c5.9 3.9 14.5 8.6 20.7 11.3c1.6.7 3.3 1.4 3.7 1.6c1.4.7 6.2 2.4 6.9 2.6c.4 0 .9.3 1.1.6c.4.4.4.6.1 1.8c-.6 2.6-1.5 6.3-1.8 6.8c-.2.7-.9.7-3 .2zm-185.4-87.5c-3.9-.3-8.8-1.1-11-1.8c-8-2.3-14.6-5.3-21.4-9.9c-7.7-5.1-15.4-13.4-20.2-21.8c-.8-1.4-1.3-2.5-2.4-4.9c-.3-.6-.8-1.7-1.1-2.5c-.4-.8-.7-1.6-.7-1.8c0-.1-.1-.6-.3-.9c-.8-1.5-2.2-6.7-3.1-11.5c-1.4-8-1-19 1.1-27c.6-2.2 2.1-6.7 3-9c3.2-8.2 9.3-17.3 16.1-24.1c6.1-6 15.1-12 22.4-14.9c.8-.3 2-.8 2.7-1c2.8-1.1 7.4-2.5 11.1-3.4c1.7-.3 5-.7 11.2-1.2c3.3-.3 2.9 0-3.5 3.1c-1.7.8-4.1 2.1-5.2 2.9c-6 4-12.7 10.7-16.8 16.8c-1.3 2-4.3 7.6-5.2 10c-.3.5-.6 1.3-.8 1.8c-1.5 3.5-3.2 9.9-3.7 13.9c-.1 1.2-.4 2.9-.5 3.8c-.8 5 .1 14.5 2 21.3c1.4 4.7 4.2 11.2 6.6 14.9c.5.7 1.2 1.9 1.8 2.7c4.2 6.5 11.9 13.7 19.9 18.6c6.8 4.2 16.4 7.3 25.8 8.2c6.4.6 14.7-.2 21-2c.7-.3 2.1-.7 3-.9c1-.3 2.4-.8 3.2-1.1c3.1-1.3 2.9-.7-.6 2.8c-1.6 1.5-3.7 3.4-4.7 4.2c-1.7 1.4-5.6 4.1-6.9 4.7c-.2.2-.9.6-1.4.9c-2 1.2-6.6 3.5-8.1 4.1c-.5.2-1.8.7-2.7 1c-2 .8-2.4.9-5.6 1.8c-4.2 1.1-8.3 1.8-12.6 2.2c-4.8.5-7.5.5-12.4 0zm100.3-31.4c0-.6-.4-4.1-.7-7.8c-1.1-11.6-2.6-19.1-4.2-22c-.5-.8-1-1.2-2.5-1.9c-2.6-1.3-9-2.9-16.3-3.9c-.7-.1-1.3-.4-1.3-.5c-.1-.3 0-.4 3.5-.8c8.1-1.1 15-3.2 16.4-5c.6-.8 1.7-3.6 2.1-5.8c.2-1 .5-1.9.5-2c.4-.6 1.8-11.1 2.3-16.8c.5-6.2.9-6.2 1.3-.1c.9 11.2 2.9 21.8 4.6 24.6c1.1 1.7 4.5 2.9 14.4 4.8c1.4.3 2.9.5 3.5.5c1.2 0 2.1.3 2 .6c-.1.1-1.7.5-3.6.8c-8.3 1.3-14.3 3.2-15.8 5c-2.1 2.5-3.8 10.9-4.9 24.5c-.6 6.2-.6 6.9-.9 6.9c-.1 0-.3-.5-.4-1.1z"/></symbol>
<symbol id="wordmark" viewBox="449 565 1476 151"><path fill-rule="evenodd" d="M723.9 714c-3.8-.3-7.6-1.3-10.1-2.7c-3.7-1.9-6.8-5-8.6-8.5c-1.3-2.6-1.9-5.1-2.6-10.7c-.1-.8-.2-14.5-.2-30.3c.1-15.9 0-30.7-.1-32.8l-.2-3.9l-5.9-.1c-3.2-.1-6-.3-6.2-.4c-.8-.5.2-2 1.6-2.5c.5-.2 2-1.1 5-3.1c5.2-3.4 12.9-10.5 16.5-15.2c1-1.4 2.3-3.1 2.9-3.9c1.3-1.7 3-4.1 3-4.2c0-.1.6-1.1 1.3-2.4c1.3-2 1.4-2.2 2.2-2.2l.9 0l.1 13.7c.1 7.5.2 13.8.3 13.9c.1.1 5.8.2 12.5.3l12.3.1l.1 2.8c0 1.6 0 2.9 0 2.9c0 0-5.7.1-12.6.2l-12.5.1l0 31.5c-.1 26.5 0 32 .3 34.3c.6 4.9 1.9 7.9 4.5 10.4c2 1.8 3.4 2.5 5.9 3.1c2.5.5 2.9.5 5.7-.1c4.1-.9 6.9-2.4 10.1-5.8c1.1-1.1 2.1-2 2.3-2c.4 0 1.6 1.4 1.6 1.9c0 1.3-6 8.2-9 10.3c-5.8 4.2-12.9 5.9-21.1 5.3zm68.6 0c-3.4-.4-8.4-1.5-12-2.9c-8.3-3-16.6-9.7-21.2-17.1c-1.9-3-3.7-6.9-4.6-9.8c-1.7-5-2.4-9-2.6-14.6c-.4-9.6 1.6-19.1 5.6-26.7c3.9-7.5 9.8-14.1 16.3-18.3c3.8-2.5 5.1-3.1 10.1-4.9c6.9-2.5 19.7-2.6 26.6-.2c9.1 3.2 14.9 7.7 19.6 15c1.5 2.2 1.9 2.9 3.2 5.9c1.5 3.3 2.4 6.2 3.1 9.9c.6 2.8.8 9.6.4 10c-.2.3-4.6.4-31.2.4c-25.8-.1-31.1 0-31.4.3c-.3.3-.4.8-.3 3.6c.2 5.8 1.3 12.5 2.6 16.2c2 5.9 4 9.5 6.8 13.1c9 11.1 23.2 13.9 37.6 7.4c4-1.9 9.7-6.7 13.1-11c.9-1.1 1.3-1.2 2.2-.3c.5.5.8 1 .8 1.2c0 .4-2.1 3.6-4.3 6.4c-3.7 4.7-10 9.7-15.5 12.4c-7.3 3.4-16.1 4.9-24.9 4zm181.6 0c-3.8-.4-8.8-1.5-12.6-2.9c-9.4-3.5-18.3-11.7-23-21.2c-2.7-5.6-4-10.5-5-18.7c-.5-4.1 0-10.8 1.3-16.1c.9-3.8 1.4-5.5 1.8-6.5c.2-.4.4-.9.4-1.1c0-.6 3.1-6.7 4.7-9.1c3-4.7 5.2-7.1 9.4-10.7c6.8-5.6 14.3-8.8 23.1-9.8c6.9-.8 14.9.2 20.4 2.7c4.5 2 8 4.3 10.9 7c7.7 7.5 12 17.3 12.4 28.7c.2 3.7.1 3.9-.3 4.1c-.3.2-9 .2-22.5.2c-27.7-.1-38.7.1-39.2.6c-.8.7-.4 8.7.6 13.6c1.6 7.7 3.9 13.3 7.5 18c1.9 2.6 4.4 5.1 6.9 6.9c4.6 3.3 9.8 4.8 16.3 4.9c4.8 0 7.9-.6 11.9-2.2c5.5-2.2 11.5-6.7 15.2-11.3c.7-.9 1.5-1.6 1.7-1.6c1.1 0 2.5 1.9 1.8 2.4c-.2.1-1 1.2-1.9 2.6c-2.8 4.2-5 6.6-9.4 10.3c-3.7 3.1-9.3 6.1-13.8 7.3c-3.8 1.1-6.4 1.6-9.4 1.9c-3.8.3-5.2.3-9.2 0zm-521.1-2.3c-.7-.8 0-2 1.3-2.1c6.2-.5 9.8-1.7 11.8-3.9c1.2-1.2 1.6-2.1 2.2-4l.6-1.8l0-57c0-54.9 0-57.1-.5-58.5c-.6-1.9-1.9-4.2-2.9-5c-1.1-.9-3.3-1.9-5.1-2.3c-3.4-.7-5.5-1.1-6.4-1.1c-.9 0-1-.1-1.2-.7c-.3-1.5-2.3-1.4 27.6-1.5c25.5-.1 27.2 0 27.5.4c.7.9.1 2.1-1.1 2c-1.2-.1-6.4.8-8.3 1.5c-3.5 1.1-5.1 3.2-5.9 7.4c-.4 2.3-.4 6.8-.4 56.4c0 52.8.1 56.5.8 59.9c.6 2.6 2.4 4.1 5.5 4.6c2.3.4 21.5.3 24.4-.1c11.4-1.7 18.7-5.8 24.9-14.3c3.3-4.5 4.7-7 6.6-12.1c.3-.9.8-2.2 1.1-2.9c.3-.7.6-1.6.6-2c.1-.4.4-.9.6-1.2c.4-.5 1.9-.5 2.3-.1c.4.5-.1 4.6-1.4 13.3c-.2 1.4-.6 3.6-.7 5c-.6 4.3-1.1 8.4-1.5 10.8c-.2 1.2-.5 3.1-.7 4.2c-.5 4.2-.7 5-1 5.2c-.2.1-22.8.2-50.3.2c-38.6 0-50.1-.1-50.4-.3zm104.6.1c-.2 0-.4-.4-.4-.8c0-.8.5-1 3.6-1.7c2.4-.6 5.3-1.7 6.7-2.7c3.6-2.5 6.7-7.1 9.4-13.7c.6-1.7 1.4-3.6 1.8-4.4c.3-.8.7-1.6.8-1.9c.1-.3.6-1.4 1.1-2.6c.6-1.2 1.2-2.6 1.4-3.2c.2-.7.8-2 1.2-3c.4-1.1 1.1-2.9 1.6-4c.4-1.2 1-2.7 1.2-3.3c.2-.6 1.1-2.6 1.8-4.5c1.9-4.6 2.6-6.4 4.6-11.4c.9-2.3 2-5 2.4-6c.4-.9 1-2.2 1.2-2.8c.7-2 2.3-5.6 2.6-6.5c.2-.4.4-.8.4-.9c0-.1.2-.6.4-1c.2-.4.6-1.6 1-2.5c.4-1 .8-2.1 1-2.5c.2-.4 2.2-5.5 4.5-11.3c2.3-5.8 4.4-11 4.6-11.7c.3-.7.8-1.8 1-2.4c.9-2.4 1.8-4.4 2-4.8c.1-.2.7-1.7 1.4-3.3c.6-1.7 1.3-3.5 1.6-4.1c.5-1.2 1.6-4.1 2.5-6.3c.2-.6.9-2.3 1.5-3.6c1.1-2.7 1.8-4.3 2.5-6.3c.3-.7.8-2 1.1-3c.4-.9.8-2.1 1-2.5c.1-.4.4-1 .7-1.4c.4-.6.6-.6 2.2-.6c1.6 0 1.8 0 2.4.7c.3.4.6.9.6 1c0 .2.2.8.5 1.3c.3.6.5 1.2.5 1.3c0 .2.3 1 .6 1.8c.4.8.8 1.6.9 1.9c.3.8 2.7 6.5 3 7c.5 1.2 1.5 3.7 2.1 5.3c.7 1.7 1.2 2.8 1.8 4.2c2.4 5.6 3.2 7.5 3.6 8.5c1.1 2.8 1.5 3.7 2.5 6c.6 1.4 1.4 3.5 1.9 4.7c.5 1.1 1 2.4 1.2 2.8c.6 1.3 1.9 4.5 2.8 6.6c.5 1.2 1 2.4 1.1 2.7c.3.6 2.2 5.1 3.3 7.9c.8 1.9 3 6.9 3.8 8.8c.2.4.9 2.1 1.5 3.8c.7 1.6 1.3 3.1 1.4 3.2c.1.2.4.9.7 1.8c.5 1.2 1.8 4.3 3.4 8c.2.4 1.3 3.2 2.5 6.2c1.2 3.1 2.3 5.7 2.4 6c.1.3.5 1.3.9 2.2c.4.8 1.1 2.6 1.7 4c.5 1.3 1.2 2.9 1.5 3.6c.2.7.7 1.7.9 2.4c.3.6 1 2.4 1.6 4.1c1.9 4.6 2.2 5.5 3.8 8.6c4.1 8.3 7 10.7 14.2 11.7c2.5.4 2.8.5 3.1 1c.2.5.2.8-.1 1.2c-.3.5-.5.5-28 .5c-17.6.1-27.9 0-28.1-.2c-1.1-.5 0-2.5 1.1-2.1c.6.2 5.8-.7 7.3-1.3c1.9-.8 3.1-1.6 3.9-2.6c.7-1 1.5-3.1 1.5-4.4c0-1.9-1.3-5.8-4.5-14.1c-.8-1.8-1.9-4.6-2.5-6.2c-.6-1.6-1.2-3.2-1.4-3.7c-.2-.4-.4-.9-.4-1c0-.2-.2-.8-.5-1.4c-.2-.5-.7-1.6-1-2.3c-.3-.8-.7-1.9-1-2.5c-1.8-4.6-3.5-8.9-3.5-9.2c0-.2-.3-.7-.6-1l-.5-.7l-21.8 0c-23.9.1-22.6 0-23.1 1.6c-.1.5-.8 2.2-1.5 4c-.7 1.7-1.4 3.4-1.5 3.7c-.1.3-.6 1.5-1 2.6c-.4 1.1-.9 2.5-1.1 3c-.2.6-.6 1.6-.9 2.3c-.3.8-.7 1.9-1 2.7c-1 2.3-1.8 4.5-2 5.3c-.1.4-.6 1.6-1 2.7c-1.4 3.6-2.8 8-3 9.8c-.2.9-.2 2.5-.2 3.5c.5 5.3 3.7 7.8 11.6 9c2.9.4 3.6.7 3.6 1.5c0 .2-.2.5-.4.7c-.4.4-2.3.4-20.6.4c-11.1 0-20.3-.1-20.4-.2zm280.7-.1c-.4-.4-.4-1.3 0-1.6c.2-.2 1.6-.5 3.1-.7c4.5-.7 6.5-1.8 8-4.3c1.4-2.3 1.3-1.8 1.3-62.1c.1-50.6 0-55.5-.4-57.6c-.5-2.9-1.3-4.7-2.8-6.2c-1.4-1.3-3-1.9-6.5-2.3c-2.6-.3-3-.4-3-1.3c0-.8.8-1.3 2.4-1.5c1.5-.1 10.8-2.5 16.4-4.1c1-.3 2.4-.7 3.1-.9c1.9-.5 4.1-1.1 5.9-1.6c4.4-1.4 5-1.5 5.5-1.2c.4.2.4 1.8.5 68l.1 67.8l.6 1.7c1.1 3.2 3.5 4.8 8.1 5.6c2.9.5 3.2.6 3.4 1.3c.1 1.3 1.1 1.2-22.9 1.3c-17.7 0-22.5 0-22.8-.3zm48.2.1c-.3-.2-.4-1.4-.2-1.7c.1-.1 1.7-.4 3.5-.7c4.5-.8 5.9-1.5 7.7-4.1c.3-.4.7-1.7.9-3.1c.4-2.1.5-4.8.5-35c0-31 0-32.7-.5-34.4c-1.2-4.9-3.4-6.6-8.9-7c-1.4 0-2.8-.2-2.9-.4c-.5-.3-.4-1.6.1-1.9c.2-.1 1.1-.3 1.9-.3c.8-.1 3.9-.8 6.9-1.5c3-.7 6.1-1.4 6.9-1.6c2.1-.4 4.8-1.1 6.1-1.5c.6-.2 1.7-.4 2.5-.6c.8-.1 1.7-.3 2-.5c1-.3 6.5-1.3 6.8-1.2c.3.1.4 6.7.4 41.2c0 42.3.1 45 1 47.1c1.2 2.6 3.6 4.2 7.1 4.6c1.1.2 2.4.4 2.9.5c1.3.1 1.7 1.8.5 2.1c-.8.3-44.8.2-45.2 0zm132.8 0c-.4-.3-.3-1.6.2-1.8c.2-.1 1.6-.4 3.1-.6c4.4-.7 6.6-2 7.8-4.8c1-2.3 1.1-5.3 1.1-37.7c-.1-32.3-.1-34.7-1.2-36.8c-1.5-3-3.4-4-7.9-4.4c-2.7-.2-3.2-.4-3.3-.7c-.3-1.1.2-1.4 3.3-1.9c1.6-.3 4-.8 5.2-1.1c1.3-.3 2.9-.7 3.6-.9c.8-.2 2.2-.5 3.2-.7c.9-.2 2.3-.6 3.1-.8c3.7-.9 10.2-2.4 12.7-2.8c2.4-.5 2.3-.8 2.3 5.3c.1 2.9 0 7.2 0 9.5c0 3.5 0 4.2.3 4.2c.5 0 .9-.6 1.6-2c.3-.6 1.2-2.2 2-3.4c4.6-6.8 10.8-11.2 17.7-12.7c4.4-.9 8.7-.3 12.4 1.6c3.3 1.7 5.5 4.2 6.8 7.7c.5 1.4.6 2.1.6 4.9c0 3.5-.4 5.2-1.8 7.3c-.9 1.6-3.2 3.4-4.9 4.1c-2.1.7-5.1.8-6.7.1c-1.4-.6-2.5-1.6-2.5-2.3c0-.7-1.1-4.6-1.6-5.6c-1.3-2.5-3.2-4.1-6-4.8c-2.1-.5-2.8-.6-4.9-.1c-5.4 1.3-9.6 6-11.7 13.2c-1.3 4-1.3 4.7-1.3 30.5c0 25.6.1 28.5 1.1 30.4c1.3 2.8 3.7 4 8.7 4.7c2.7.4 3.3.5 3.5.9c.2.4.2.7 0 1.1l-.3.6l-22.9 0c-12.7 0-23.1-.1-23.3-.2zm-203.5-56.3c.1-.2.2-2.4.2-4.8c0-4.7-.4-7.7-1.8-12.5c-1.8-6.7-5.4-11.9-9.8-14.1c-2.2-1-5.5-1.9-7.5-1.8c-2 0-5.2.8-7.3 1.8c-5.1 2.6-8.6 6.7-11.7 14.3c-.7 1.6-1.6 4.5-2.2 7c-.6 2.5-1.4 9.3-1.3 9.8c.1.2.4.4.7.6c.3.1 8.9.2 20.5.1c16.8-.1 20-.1 20.2-.4zm180.7-.2c.5-.3.5-.4.4-4.6c-.1-7-1.1-11.7-3.8-17.8c-.8-1.9-3.1-5.1-4.7-6.6c-2.1-1.9-4.3-2.9-7.5-3.6c-2.4-.5-2.5-.5-5.1-.1c-1.5.3-3.1.7-3.7.9c-.6.3-1.1.5-1.2.5c-.6 0-3.9 2.6-5.5 4.2c-3.1 3.3-5.4 7.3-6.9 12.3c-.2.9-.6 2.2-.9 3c-1 3.3-2 10.9-1.6 11.8c.2.4.9.5 7.6.5c4 .1 12.9.1 19.8 0c10.6-.1 12.6-.1 13.1-.5zm-357.3-2c.2-.1 0-1.5-.6-2.7c-.3-.8-1-2.7-1.6-4.2c-.6-1.5-1.2-3.1-1.4-3.5c-.2-.4-.6-1.5-1-2.4c-.3-.9-.8-2-1-2.4c-.6-1.5-1.6-3.8-2.2-5.5c-.4-.9-.8-1.9-.9-2.2c-.1-.2-.3-.5-.3-.7c0-.2-.6-1.8-1.6-4.1c-.7-1.5-1.3-3-1.9-4.4c-.4-.8-.7-1.6-.7-1.8c0-.1-.2-.6-.3-.9c-.2-.4-.5-1.1-.7-1.7c-.2-.5-.4-1-.5-1.2c-.1-.1-.3-.5-.4-.8c-.7-2.6-4.2-10.7-4.6-10.7c-.2 0-.5.5-.7 1.1c-.3.7-.7 1.7-1 2.3c-.5 1.1-2.5 6.1-3 7.6c-.3.8-.8 2-1.8 4.7c-.5 1.3-.9 2.2-2.2 5.6c-.8 1.9-2.4 6-3.3 8.5c-1.5 3.9-2.3 6-3 7.9c-.3.6-.8 1.9-1.1 2.8c-.4 1-.8 2.1-1 2.5c-.2.4-.6 1.4-.9 2.3c-.3.8-.7 1.9-.9 2.4c-.5 1.2-.3 1.4 1.3 1.5c1.1.1 37.1.1 37.3 0zm-92.2-37.1c-.4-.9 0-1.5 2.2-3.2c3.7-2.8 7.2-6.5 8.7-9.4c2.3-4.4 2.7-8.1 1-9.9c-.5-.6-.8-.7-2.7-.7c-2.4 0-4-.5-6-1.9c-2.3-1.6-3.7-4.8-3.7-8c0-3.9 2.5-7.7 6.2-9.4c1.6-.8 1.8-.8 4.8-.8c2.7 0 3.3.1 4.5.6c3.8 1.7 5.9 4.1 7.3 8.5c.5 1.4.6 2.2.6 5.6c0 3.4-.1 4.4-.6 6.2c-1.6 6.1-3.9 10-8.5 14.5c-3.2 3.1-6.3 5.4-9.6 6.9c-.7.3-1.7.8-2.3 1c-1.4.7-1.6.7-1.9 0zm358.9-15.2c-3.5-.7-6.7-3.4-8.2-6.9c-.8-1.9-.8-2.1-.8-5c0-2.6.1-3.2.7-4.8c1.2-3.4 4.2-6.4 7.7-7.5c3.1-1.1 7.6-.6 10.7 1.2c3.5 1.9 5.8 6.1 5.8 10.6c.1 5.4-2.5 9.6-7.2 11.6c-2.1 1-6.1 1.3-8.7.8z"/><path fill-rule="evenodd" d="M1176.6 713.1c-7.2-.8-15.5-4.2-21.3-8.9c-2.9-2.4-7.2-7-9.1-9.8c-.8-1.1-3.9-6.5-3.9-6.7c0-.1-.2-.6-.4-1.1c-.9-2-2.4-6.8-3.1-10.6c-.6-2.5-.6-3.7-.7-10.1c0-7.5.2-8.9 1.7-14.3c2.1-7.5 7.2-16.5 12.2-21.2c1.4-1.2 6.1-5 7.4-5.9c4-2.6 9.3-4.8 15.2-6.1c6.9-1.8 17.5-1.3 25 .9c2.6.8 7.5 3.2 9.1 4.4c.8.6 1.5.9 1.8.9c.6-.3.5-35.2-.2-38.9c-.8-5.5-3.4-7.5-9.5-8c-1.8-.1-2.4-.3-2.6-.6c-.3-.7-.1-1.3.6-1.5c1.9-.3 6.3-1.3 7.8-1.7c.8-.3 2.7-.8 4-1.1c3.5-1 6.2-1.6 11.5-3.2c.9-.4 3.1-1 4.7-1.4c1.6-.6 3.2-1.1 3.5-1.2c.5-.1.8 0 1 .3c.4.4.5 6 .4 64.4c0 57.4.1 64.3.5 66.3c1 5.3 3.3 7.2 9.2 7.4c2.7.2 3.2.4 3.2 1c.1.4-1 1.3-1.7 1.3c-.3 0-1.4.2-2.3.4c-1.6.4-3.5.7-11.2 2c-10.1 1.7-17.7 2.7-18.1 2.2c-.1-.1-.3-3-.4-6.3c-.1-4.5-.2-6-.4-6c-.3 0-1.1.7-2 1.7c-2.5 2.8-6.5 6-10.1 7.8c-6.2 3.3-13.4 4.4-21.8 3.6zm103 0c-3.1-.6-7.4-2-10.1-3.5c-6.2-3.3-10-8.4-12.2-16.3c-1.2-4.3-1.3-6.6-1.3-32.6c-.1-27.6-.1-28.7-1.7-31.5c-1.3-2-2.6-2.9-5.5-3.5c-1.3-.2-2.9-.5-3.6-.5c-1.3-.1-1.8-.4-1.8-1.2c0-.8.4-1.1 2-1.3c.7 0 2.2-.4 3.3-.6c1.1-.2 3.5-.6 5.2-.9c3.1-.6 6.4-1.3 10.5-2.2c1.3-.3 3.5-.7 4.9-1.1c1.2-.3 3.3-.7 4.4-1c1.1-.3 2.2-.5 2.4-.4c.7.1.8 3.3.8 37.6c.1 16.9.2 31.8.3 32.7c.7 5.3 1.9 8.4 4.7 11.3c2.1 2.1 4.8 3.7 7.7 4.3c2 .6 6.6.6 9.1.1c2.2-.3 5.3-1.4 6.7-2.1c1.6-1 4.6-3.3 5.6-4.3c.9-1 3.3-4.5 3.3-4.8c0-.2.2-.8.5-1.4c.6-1.2.6-1.7.5-29.2l0-27.8l-.7-1.8c-.6-1.9-2.2-4-3.5-4.7c-1-.5-3.9-1.2-5.8-1.4c-.9-.1-1.7-.3-2-.4c-.5-.4-.4-1.5.1-1.6c1.1-.3 4.7-1.1 6.4-1.3c3.9-.5 10.6-1.9 14.3-2.8c1.6-.3 4.8-1.1 8.9-2c1.3-.4 2.3-.5 2.6-.3c.5.4.6 6.8.7 46.2c0 21.7.1 32.6.4 34.3c.7 5.8 3.5 8.1 10.1 8.1c2.1.1 2.8.5 2.2 1.5c-.2.6-.5.7-1.8.9c-.9.1-2 .2-2.6.4c-1.9.5-12.3 2.3-18.7 3.4c-7.5 1-9.5 1.2-9.9.8c-.3-.3-.4-2.1-.5-7.4c-.2-6.5-.2-7-.7-7c-.3 0-.7.4-1 1c-1.4 2.2-5.8 6.3-10 9.1c-3.4 2.3-5.9 3.5-9.9 4.5c-2.3.7-3.3.8-7.7.8c-2.8.1-5.8 0-6.6-.1zm302.4 0c-3.8-.5-10.1-2.4-13.5-4c-7.4-3.5-12.3-8-16.9-14.8c-3.2-4.9-4.7-8.3-6.2-15c-.3-1.3-.6-2.6-.6-2.9c-.4-1.7-1-7.1-1-9.4c0-4.1.8-10.8 1.4-13.6c1.4-5.1 3.3-10 5.6-13.6c.2-.6.8-1.4 1-1.9c.2-.4 1.3-1.8 2.2-3.2c5.7-7.5 13.6-13 22.3-15.5c5.2-1.5 6.3-1.7 12.1-1.7c6.3 0 8.7.4 14 2.3c5.3 1.7 8.6 3.6 12.5 7.1c1.7 1.6 5.8 6.3 5.8 6.7c0 .1.3.7.6 1.2c1.1 1.4 3.2 6.1 3.9 8c1.7 5 3 15 2.2 16.5l-.3.6l-30.3 0c-28.4 0-30.4 0-30.8.4c-1 1.1.1 13.3 1.6 18.3c1 3.3 1.4 4.1 1.9 5.6c1.2 2.9 1.9 4.2 4.7 8c1.3 2 5.1 5.5 6.9 6.7c3 2 5.1 2.9 8.6 3.9c2.4.7 3 .7 7.9.7c4.7 0 5.4 0 7.5-.6c8.1-2.3 13.2-5.6 19-12.5l1.3-1.6l1 .6c1.6 1 1.7 1.3.5 2.9c-8.3 11.6-16.8 17.7-28.9 20.2c-2.8.7-12.8 1-16 .6zm75.8 0c-2.7-.2-6.5-.9-9.1-1.5c-.8-.2-2.2-.6-3.1-.8c-.7-.2-2.1-.5-3-.8c-.9-.3-2.8-.6-4.3-.7c-1.5-.2-2.9-.4-3-.6c-.3-.2-.3-3-.3-13.4l.1-13l.9-.1c1.1-.1 1.4.2 1.8 2c.4 2.8 2.2 7.4 4.2 10.9c2.2 4.1 6.5 8.5 10.3 10.6c.2.2.7.4 1.1.6c1.4.8 2.5 1.2 5.1 1.8c5.9 1.4 12.6.4 16.8-2.8c3.5-2.7 5.6-6.8 5.6-11.7c0-7.5-4.1-12.1-15.8-18c-2.5-1.2-6.5-3.3-8.9-4.4c-4.8-2.4-6.7-3.5-10.2-6.2c-6.5-4.9-9.1-9.1-10.4-16.5c-.7-4-.5-6.9.8-11.6c1.7-6.7 6.2-12.3 13.1-16c2.1-1.1 4.7-2.1 7.9-2.9c1.8-.4 3.2-.5 9-.5c7.5 0 8.3.2 15.9 2.2c2.8.7 3.9.9 6 .9c1.7 0 2.6.2 2.8.5c.2.2.2 4 .2 11.8l-.1 11.5l-.9.1c-1.1.1-1.6-.2-1.9-1.6c-1.2-5.2-4.5-11.3-8-14.6c-5.3-5.4-12.2-7.6-18.7-6c-6.8 1.8-10.9 6.8-10.9 13.6c0 3.8 1.3 6.7 4.1 9.5c2.8 2.6 6.6 5 13.7 8.3c7.3 3.3 9.8 4.5 12.8 6.3c3.2 1.8 3.9 2.2 5.9 3.9c3.3 2.6 6.6 7 7.7 10c1.5 4 1.8 5.9 1.8 10.1c0 3.4-.1 4.8-.6 6.7c-1.2 5.5-3.4 9.6-7.3 13.3c-7.3 7.2-17.5 10.3-31.1 9.1zm83.7 0c-6.2-.8-13.3-3.4-18.9-6.9c-6.7-4.4-13.5-12.7-16-20c-1.4-3.9-2.7-9-3.3-12.9c-.7-5.2-.3-14.8.8-18.5c.2-.7.6-2.1 1-3.2c2.8-9.9 8.2-18.3 15.7-24.4c3.7-3 8-5.7 10.8-6.6c.6-.2 1.1-.4 1.3-.5c.4-.3 3.8-1.3 6.9-1.9c3.7-.9 12-.9 15.5-.2c3 .7 6.8 1.8 8.1 2.3c5.8 2.6 9.9 5.5 14.1 10.2c1.6 1.9 3.3 4.6 5 7.9c2.5 4.9 4.3 12.6 4.3 19c0 2.1-.4 2.6-2 2.5c-.5-.1-13.9-.1-30 0c-28.8 0-29.1 0-29.6.5c-.5.5-.6.8-.4 4.5c.4 9.6 3.1 19.1 7.4 25.6c6.2 9.4 15.9 14.1 26.9 13.2c4.2-.4 7.2-1.2 11.2-3.1c5.1-2.5 8.5-5.2 12.2-9.2c1-1.2 2-2.2 2.1-2.2c.3-.1 1.3.8 1.6 1.3c.2.3.1.6-.3 1.4c-.4.4-1.2 1.7-1.9 2.8c-6.5 9.8-18.1 17-29.7 18.4c-2.6.3-10 .3-12.8 0zm149.8 0c-1.8-.3-5-1.2-6.7-2c-4-1.8-7.6-5.3-9.4-9.6c-2.4-5.9-2.4-5.2-2.4-43c0-25.3-.1-32.2-.4-32.6c-.3-.3-1-.4-5.8-.5l-5.4 0l.1 1.1c.4 3 .5 5.9.2 7.8c-.6 3.8-2.8 7.1-5.9 8.6c-1.3.6-1.9.7-3.9.7c-4.1 0-5.3-.9-5.9-4.6c-.7-2.9-1.5-4.7-3.1-6.2c-4.2-4.2-10.9-2.9-15.5 2.9c-2.2 2.8-3.9 7.3-4.9 12.3c-.4 2.4-.4 4.9-.3 27.6c.1 22.4.2 25.1.6 26.7c.6 2.4 1.7 3.9 3.6 4.9c1.2.5 6 1.6 7.5 1.6c1.2 0 1.8.3 1.8 1.2c0 .3-.3.7-.4.8c-.3.3-5.8.3-23.4.3c-20.7 0-23 0-23.1-.3c-.5-1.4.1-2 2-2c1.6 0 5.7-1.2 7-2c1.3-.7 2.4-2.1 3-3.9c.5-1.2.6-3.3.6-35.5c0-32.6 0-34.4-.6-35.9c-.5-1.8-1.9-3.6-3.4-4.5c-1.2-.9-3.9-1.5-6.5-1.6c-2.1-.2-1.9-.2-2.1-.9c-.3-.9.2-1.2 2.2-1.6c1.1-.2 3.5-.7 5.2-1.1c1.8-.3 4.2-.9 5.3-1.1c1.1-.2 2-.4 2.1-.5c.1-.1 1.2-.3 2.3-.5c1.7-.4 6.8-1.5 11.2-2.7c2.2-.6 4.5-.8 4.6-.5c.1.3.3 4.6.3 9.8c.1 5.2.2 9.5.3 9.6c.2.3 1.1-.8 1.9-2.6c.5-1.1 1.8-3.1 2.8-4.5c6.5-8.8 12.7-12 21.7-11.4c4.7.3 8.6 2.6 11.6 6.7c.7.9 1.2 1 1.2.2c0-1.1.6-1.6 3.7-3.4c1.7-.9 3.9-2.3 4.9-3.1c2.6-2.1 8.6-7.5 10.1-9.2c.6-.9 1.3-1.6 1.4-1.7c.6-.6 3.9-5 5.6-7.2c1.8-2.7 2.3-3.7 3.6-6.1c.7-1.1 1.6-2.2 2-2.2c.2-.1.5.1.7.3c.3.4.4 2.2.4 13.7c0 9.2.1 13.3.3 13.5c.3.3 2.6.4 12.2.4c6.6 0 12 .1 12.2.3c.4.2.6 4.9.2 5.3c-.2.1-5.3.3-12.5.3l-12.3.2l0 33.3c0 32 0 33.3.6 35.1c.8 3.2 1.7 4.8 3.5 6.5c2.5 2.6 5.3 3.6 9.2 3.6c2.7 0 4.7-.5 6.9-1.7c1.8-1 5.1-3.5 6.2-4.7c.3-.3.7-.5.9-.5c.5 0 1.7 1.3 1.7 1.8c0 .5-2.4 3.6-4.1 5.4c-1.6 1.7-5.8 5-7.7 6c-1.9 1-6.2 2.3-9.5 2.9c-2.1.3-8.1.3-10.2 0zm-497.3-2.3c-.3-.1-.4-.6-.4-1c0-.8.1-.9 2.6-1.1c2.6-.4 6-1.1 7.5-1.6c3.3-1.3 4.8-3.4 5.6-7.5c.6-2.1.6-4.6.6-57.3c0-51.9 0-55-.6-57.3c-1-5.3-3.3-7.5-9-8.9c-1.4-.3-3.4-.6-4.4-.6c-2.4 0-2.9-.3-2.8-1.6l.1-1l10.1-.1c5.5-.1 21.2-.2 34.9-.2c22.8 0 25.4 0 31.3.5c9.3.8 14.7 1.7 20.7 3.8c5 1.7 5.6 1.9 9.2 3.7c6.9 3.4 11.8 6.7 16.9 11.5c5.7 5.6 8.5 9.5 12.6 17.3c1 2.2 1.6 3.5 3 6.9c1.4 3.4 3.4 12.8 3.9 17.9c.3 3.6.3 11.6 0 15.6c-1.2 14.3-7 27.9-16.5 39.1c-3.7 4.2-9.9 9.2-15.4 12.3c-1.9 1.1-5.7 3.1-6.6 3.4c-.5.2-1.5.6-2.4 1c-2 .8-5.8 1.9-10.1 3.1c-2.5.6-4.2.9-9.7 1.7c-4.1.6-15 .7-47.2.7c-25.8 0-33.7 0-33.9-.3zm73.2-5.8c3.5-.6 6.5-1.4 8.5-2.1c4-1.5 5-2 6.7-2.8c4.1-2.3 7.7-5.1 11.7-9.3c5-5.1 8.9-11.5 11.9-19.6c4.4-11.6 5.8-30.3 3.3-43.9c-.9-4.3-2.1-9-3.5-12.9c-.6-1.5-4.4-9.4-5.7-11.4c-2-3.2-3.7-5.4-7.3-8.9c-2-2.1-4.1-4.1-4.7-4.7c-1.8-1.5-5.9-4-8.7-5.4c-1.5-.8-3-1.4-3.3-1.6c-2.3-1.2-10.1-3.4-14.5-4c-3.7-.6-25.4-.5-26.5.1c-1 .4-1.5 1.4-1.7 4c-.2 1.1-.3 26.1-.3 57.3c0 60.2 0 59.2 1.4 61.9c1.4 2.5 2.8 3 9 3.7c2.2.3 5.9.4 11.8.3c7.7 0 9.2-.1 11.9-.7zm-274.6-.1c5.2-.9 8.7-2.6 12.6-6.2c2.4-2.3 4-4.4 5-6.9l.7-1.4l0-25.6c0-28 .1-25.5-1.6-29.1c-2.2-4.6-6.2-8.7-10.9-11c-3-1.4-5.7-2-9.4-2c-3.2 0-3.9.1-6.3.7c-4.8 1.4-7.6 3.1-11.2 6.9c-2.1 2.3-3.9 4.8-5.3 7.5c-3.9 7.8-6.1 21.5-5 32.3c.9 8 2.6 14.7 5.1 19.3c4.6 8.6 10.6 13.6 18.8 15.3c2.8.6 4.2.7 7.5.2zm413.9-50.3c.5-.6.1-10.3-.6-13.7c-1.5-6.6-3.6-11.2-6.6-14.1c-2.8-2.5-5.1-3.8-8.6-4.5c-2.1-.4-2.4-.4-4.9 0c-2.8.5-4.6 1.2-6.7 2.5c-5 3.1-9.3 9.8-11.3 17.3c-1.6 6.4-2.4 12.2-1.6 12.7c.2.1 9 .2 20.1.2c17.3 0 19.9 0 20.2-.4zm159.1 0c.4-.6.1-9.8-.6-13c-1-5.2-2.6-9.4-4.4-11.9c-1-1.7-3.6-4.2-4.9-5c-2.6-1.6-5.9-2.8-8.6-2.8c-1.7 0-4.6.9-6.6 1.8c-3.1 1.4-7.5 5.6-9.1 8.5c-.3.5-.9 1.4-1.2 2.2c-1.2 1.8-2.3 5.3-3.6 9.8c-.4.9-.8 3.6-1.1 5.9c-.5 3.3-.5 4.2-.3 4.5c.3.4 2.8.4 20.2.4c17.3 0 19.9 0 20.2-.4zm-187.5-47.3c-.2-.2-.4-.5-.4-.8c0-.2.7-1.7 1.6-3.4c1-1.7 2.1-4 2.8-5.2c.6-1.1 1.6-2.8 2-3.6c.6-.9 1.7-3.1 2.8-5.1c1-2 2-3.7 2.1-3.9c.1-.1.8-1.4 1.6-2.9c2.3-4.6 3.1-5.5 4.8-6.4c1.3-.5 1.8-.6 4.7-.6c2.8 0 3.4.1 4.6.6c3.1 1.5 4.3 3.6 4.1 7.2c-.1 2.2-.2 2.5-1.1 3.9c-1.2 1.8-4.4 4.4-9.1 7.4c-1.7 1.1-3.8 2.5-4.8 3.2c-1.8 1.3-6.1 4.2-11.6 7.9c-1.7 1.2-3.2 2.1-3.4 2.1c-.2 0-.5-.2-.7-.4z"/></symbol>
<symbol id="lockup" viewBox="354 91 834 839"><path fill-rule="evenodd" d="M757.1 546.5c-1.1-.1-3.6-.3-5.6-.5c-3.6-.3-12.4-1.4-12.7-1.6c-.1-.1-1.1-.3-2.3-.5c-3.3-.6-6.1-1.3-8.9-2c-1.4-.4-2.8-.8-3.2-.9c-1.9-.5-5.3-1.5-7.9-2.5c-4.4-1.5-5.1-1.7-5.9-2.1c-.4-.2-.9-.4-1-.4c-.2 0-3.1-1.1-4.6-1.8c-3.8-1.7-14.7-7.1-16.4-8c-4.9-2.9-11.1-6.8-13.2-8.3c-8.8-6.4-15.2-11.6-21.6-17.5c-4-3.6-11.6-11.6-15.3-15.9c-1-1.2-2.1-2.5-2.5-2.9c-2.2-2.5-6.4-7.9-9.1-11.8c-.2-.4-1.3-2-2.5-3.7c-1.2-1.6-3-4.4-4.1-6.2c-1-1.7-2.1-3.4-2.3-3.8c-3.1-5-11-19.7-11-20.4c0-.1-.6-1.5-1.4-3.1c-2.4-5-3.8-8.3-5.1-11.8c-.2-.8-.9-2.4-1.4-3.7c-.5-1.2-1-2.6-1.1-3c-.1-.4-.5-1.5-.9-2.5c-1.3-3.5-3.1-9.2-4.6-14.4c-.2-.8-.6-2.2-.8-3c-2.3-7.7-5.1-19.9-5.7-24.7c-.2-1.2-.3-2.2-.4-2.3c-.4-.6-1.8-12.6-2.5-20.3c-.2-2.5-.5-5.8-.6-7.4c-.4-4.1-.6-26-.3-31c.5-7.1 1-13.8 1.3-15.3c.2-.8.4-2.8.5-4.4c.1-1.6.4-3.9.6-5.2c.6-3.7 1.4-8.4 1.5-9.6c.2-1.4 1.1-5.9 1.5-8c.2-.9.5-2.2.6-3c.6-3 3.1-13.1 4.3-17.2c2.2-7.4 4.6-14.6 7.5-22.7c.8-2.1 2.2-5.6 3.3-8.3c.4-.8 1-2.3 1.4-3.1c1.4-3.4 7.8-16.5 9.1-18.8c.5-.9 1.9-3.4 3.2-5.7c1.3-2.2 2.5-4.4 2.8-4.7c.2-.3.8-1.3 1.3-2.1c1.8-2.8 2.1-3.3 4-6.3c1.1-1.6 3.2-4.7 4.8-6.7c1.5-2.1 3-4.2 3.4-4.6c.3-.5 2-2.7 3.8-4.8c12.6-15.2 26.2-27.8 39.9-36.8c3.7-2.5 6.1-4.1 6.5-4.3c.2-.1.8-.4 1.4-.8c.5-.3 1.6-.9 2.5-1.4c.8-.4 2.6-1.4 4-2.2c5.4-3.1 11.9-6.1 19.2-8.9c.8-.3 2.3-.8 3.2-1.2c5.3-2.1 12.9-4.3 19.3-5.6c2-.4 4.9-1 6.5-1.3c1.7-.3 3.8-.7 4.8-.9c1.9-.4 7.8-1 13-1.4c4.1-.2 16.8-.2 21 0c4.4.4 10.7 1 12.3 1.3c.7.2 2.4.4 3.6.6c2.2.3 3.3.6 7.9 1.5c2.8.6 6.9 1.6 9.2 2.3c4 1.1 14.1 4.6 16.2 5.6c.3.1 1.4.6 2.4 1c3.5 1.5 5.4 2.4 9.9 4.6c5.5 2.8 6.7 3.5 10.6 5.8c8.4 5 19 12.8 27.2 20.2c5.8 5.1 13.9 13.6 19.3 20c2.5 3.1 4 4.9 8 10.2c2.5 3.3 4.8 6.6 7.3 10.6c.7 1 1.7 2.6 2.3 3.5c.6 1 1.3 2.1 1.6 2.6c.2.4.5 1 .7 1.2c.8 1.4 3.1 5.3 3.1 5.4c0 .1.7 1.3 1.5 2.8c1.7 3 5.8 11 6.9 13.6c.4.9 1 2.3 1.4 3.1c.3.9.9 2.1 1.3 2.9c1.1 2.4 3.1 7.3 4 9.9c.2.5.6 1.6.9 2.3c.3.8.7 1.9.9 2.4c.2.6.8 2.5 1.5 4.3c1.6 4.6 2.5 7.2 3.1 9.3c.3 1.1.7 2.7 1 3.6c.3.9.7 2.5 1 3.4c.7 2.6 1.2 4.4 1.9 7.4c.3 1.5.8 3.7 1.1 4.8c.2 1.1.7 3 1 4.4c.3 1.3.7 3.1.9 4c.2.8.5 2.3.6 3.2c.3 2.2.9 6.2 1.4 8.6c.2 1.1.5 3.3.6 4.8c.2 1.5.4 3.2.5 3.8c.1.7.3 2.7.5 4.7c.1 1.9.4 4.3.5 5.2c.4 2.6 1 18.6 1 24.7c0 5.8-.6 19.4-1 22.6c-.1 1.1-.4 3.5-.5 5.4c-.1 1.8-.4 4.6-.6 6.2c-.7 4.9-1.7 11.1-1.9 12.1c-.1.6-.3 1.8-.5 2.8c-.1.9-.4 2.5-.6 3.3c-.2.9-.6 2.8-.9 4.2c-.7 3.1-1.6 7.3-2.1 9.1c-.8 3-1.4 5.3-2.2 7.9c-.4 1.5-.9 3.3-1.1 4.1c-.5 1.6-3.3 10.1-4.2 12.5c-.3.9-1 2.7-1.5 4c-1 2.8-3.5 9-4 10.2c-.2.4-.4.8-.4.9c0 .1-.5 1.2-1.1 2.6c-.7 1.3-1.4 2.9-1.7 3.5c-1.8 4-6.4 13-6.9 13.6c-.1.2-.8 1.3-1.4 2.6c-.7 1.2-1.4 2.4-1.6 2.6c-.1.2-.3.5-.3.6c0 .1-3.9 6.4-5.3 8.4c-.5.8-1.8 2.8-3 4.6c-4.6 6.8-9.9 13.6-17.3 21.8c-3.1 3.5-11.8 12.2-14.4 14.5c-.8.7-2.2 1.9-3.1 2.6c-2 1.9-7.9 6.6-9 7.3c-.5.3-1.9 1.4-3.2 2.3c-3.5 2.7-8.8 6.2-13.2 8.8c-1.6.9-3.3 1.9-3.9 2.3c-1 .6-9.7 4.9-12.8 6.4c-4.8 2.2-5.9 2.7-7.9 3.4c-.7.3-1.9.7-2.7 1c-3.4 1.3-12.4 4.1-16.4 5.2c-6.9 1.7-16.9 3.4-23.2 4c-5.2.4-22.9.6-26.5.3zm21.5-7.5c2.1-.1 4.7-.3 5.9-.5c1.2-.1 3.1-.4 4.4-.5c2.2-.3 3.6-.5 8.9-1.5c3.6-.7 9.7-2.2 11.8-2.9c.6-.2 2-.6 3.3-1c1.2-.3 2.8-.9 3.5-1.1c1.4-.5 3-1.1 5.5-2c3.3-1.2 8.4-3.4 11.2-4.8c1.1-.6 3.1-1.6 4.5-2.3c1.4-.6 4-2.1 5.8-3.1c4.5-2.6 4.1-2.4 7.1-4.3c.8-.5 1.6-1 1.8-1.1c1.3-.8 4-2.6 5.2-3.4c.8-.6 1.9-1.4 2.5-1.8c5.4-3.8 15.2-12.2 21-17.9c5.7-5.7 13.3-14.3 17.4-19.8c1.9-2.5 3.9-5.2 4.5-6c1.1-1.5 6.5-9.7 7.2-10.9c.2-.4.7-1.2 1-1.7c.4-.6.7-1.2.8-1.4c.1-.2 1.5-2.7 3.1-5.5c3.5-6.2 6.4-12.1 10-20.3c1.7-3.7 2.1-4.5 3.5-8.6c.6-1.5 1.3-3.5 1.7-4.4c.3-.8.9-2.6 1.3-3.8c.4-1.3 1.2-3.3 1.6-4.6c1.1-3 2.5-7.5 3.1-10.1c.3-1.1.8-2.8 1.1-3.9c.7-2.6 1.1-4.5 1.7-7c.3-1.2.6-2.5.7-2.8c.1-.3.3-1.2.4-2c.1-.8.3-1.6.4-1.9c.3-.7 2.3-12.3 3-17.1c.9-6.5 1.6-13.7 2.3-24.9c.2-4.5.2-19.6 0-24.3c-.6-8.9-.8-12.4-1.2-15.2c-.2-1.6-.4-3.7-.5-4.5c-.1-1.6-.8-6.2-1.7-12.5c-.6-3.5-1.3-7.2-3.3-16.2c-1.1-5.1-1.4-6.2-1.5-6.4c0-.1-.5-1.7-.9-3.5c-1.1-4-1.6-6-2.1-7.4c-.1-.5-.8-2.7-1.5-4.7c-1.3-4.3-2.1-6.6-3-9c-.4-1-.8-2.2-1-2.8c-.2-.5-.5-1.3-.7-1.8c-.2-.4-.4-.9-.4-1c0-1.1-6.5-15.8-10.1-22.9c-2.9-5.7-8.2-15.1-10.4-18.4c-.7-1-1.3-2.1-1.4-2.3c-.4-.8-6.2-9.2-8.7-12.6c-3.8-5.2-12-14.6-17.1-19.7c-3.4-3.5-11.6-11-13.7-12.6c-.6-.4-2.3-1.7-3.8-2.9c-3.2-2.5-6.3-4.8-8.7-6.3c-.9-.5-2.9-1.8-4.4-2.8c-1.6-1-3.2-2.1-3.7-2.3c-.5-.3-1-.6-1.2-.7c-3.3-2.1-12.9-6.9-16.6-8.4c-1.6-.7-3-1.3-3.3-1.4c-.6-.2-3.3-1.3-4.5-1.7c-.4-.2-1.6-.6-2.5-.9c-8.8-3.2-18.3-5.6-29.4-7.3c-8.8-1.3-22.2-1.7-30.9-1c-11.1.9-21.5 2.7-29 4.9c-6.9 2-10.5 3.2-13.8 4.5c-3.3 1.3-5.1 2-6.2 2.5c-.3.1-2.3 1-4.5 2c-2.2.9-4.5 2-5.2 2.4c-.7.4-2.3 1.2-3.7 1.9c-4.7 2.5-6.8 3.8-13.2 8c-6.3 4.2-13.5 9.7-19.1 14.8c-6.1 5.4-15.6 15.5-20.9 22.2c-3.5 4.3-9.5 12.6-10.7 14.7c-.5.8-1.8 2.8-2.9 4.6c-1.2 1.8-2.3 3.6-2.5 3.9c-.2.3-.9 1.6-1.6 2.8c-.7 1.2-1.3 2.3-1.3 2.4c0 0-.4.8-1 1.8c-.5.9-1.3 2.3-1.7 3.1c-.5.9-1.1 2-1.5 2.7c-1.2 2.1-4.8 9.5-4.8 9.8c0 .1-.5 1.2-1.1 2.4c-.6 1.3-1.4 3.1-1.8 4c-.9 1.9-3.1 7.3-3.1 7.6c0 .1-.2.6-.4 1c-.7 1.6-1.6 4.1-3.4 9.4c-1 3-2 6-2.2 6.8c-.5 1.4-1.6 4.9-2.1 7.1c-.2.7-.7 2.3-1 3.6c-.8 2.8-1.7 6.3-2.4 9.4c-.3 1.3-.7 3.3-1 4.5c-.3 1.2-.8 3.8-1.1 5.7c-.4 2-.8 4.4-1 5.5c-.6 3.3-1.4 8.1-1.5 10.2c-.1 1-.3 2.4-.4 3.1c-.1.7-.4 3.1-.6 5.5c-.2 2.3-.5 5.3-.6 6.6c-.5 4.9-.9 18.5-.7 25c.2 8.7.6 16.4.9 18.5c.1.9.4 3.1.5 5c.1 1.9.4 4.2.5 5.1c.9 6.2 1.6 10.7 1.9 12c.2.8.4 2 .5 2.6c.2 1.4 1.4 7.1 3 14.2c.5 2.2 1.5 5.9 2.2 8.5c.4 1.2.8 2.8 1 3.5c.4 1.4 3.8 11.6 4.8 14.2c.3 1 .8 2.4 1.1 3.2c.3.7.7 1.9 1 2.7c.3.8.7 1.9 1 2.6c.4 1.2 1.7 4.2 3.1 7.1c.3.8 1 2.3 1.4 3.3c1 2.4 4.6 9.7 5.6 11.5c.8 1.3 1.9 3.4 4 7.2c.5 1.1 1 2 1.1 2.2c.2.2.7 1 1.7 2.7c.6 1.2 6 9.4 7.7 11.8c.5.7 1.3 1.7 1.7 2.4c1.5 2 6.8 8.7 9.8 12.3c3.5 4.1 13.3 14.2 18 18.4c6.8 6.1 15 12.3 23.3 17.4c.5.4 1.3.9 1.6 1.1c4.1 2.8 15.7 8.7 21.1 10.9c2.4.9 4.8 1.8 5.3 2.1c.6.3 1.2.5 1.4.5c.1 0 .6.2 1 .4c1 .4 3.4 1.3 5 1.7c4.3 1.3 6.5 1.9 12.1 3.4c2.4.6 5.3 1.2 8.3 1.6c1.4.2 2.6.5 2.8.5c.2.1 1.6.2 3 .4c1.4.1 3.4.4 4.3.5c.9.2 2.9.4 4.4.5c3.9.3 18.6.3 22.9 0zm.6-25.6c-2.1-.2-4.7-.5-5.7-.7c-1-.1-3.3-.5-5-.7c-8.2-1.2-17.9-3.6-26-6.5c-4.9-1.7-5.1-1.8-5.9-2.1c-.4-.2-.9-.4-1-.4c-.4 0-5.8-2.4-11.1-4.9c-1.6-.8-3.4-1.6-4-1.9c-1.7-.8-9.3-4.6-11.7-5.9c-1.2-.6-3.4-1.7-4.8-2.5c-4.1-2.2-4.4-2.3-4.8-2.5c-1.3-.9-7-4-11-6c-4.8-2.4-5.2-2.7-5.2-3.1c0-.3.6-.2 4.9.4c9.6 1.3 21.3.9 29.9-1.1c8-2 17.1-4.7 19.4-6c.2-.1 1.3-.6 2.3-1c6.6-2.8 15.5-7.4 21.6-11.3c1.1-.6 2-1.2 2.1-1.2c0 0 .4-.2.7-.5c.4-.2 3.3-2.1 6.3-4.1c3.1-2.1 6.5-4.3 7.4-5c1-.7 3.2-2.3 4.9-3.4c1.7-1.2 4.1-2.9 5.4-3.7c3.1-2.2 9.1-6.2 9.6-6.4c.2-.1 1.2-.6 2.1-1.3c4.6-2.8 10.8-6.2 14.5-7.8c.6-.3 1.6-.8 2.2-1c7.4-3.4 14.4-5.5 23.3-7.1c3-.5 4-.6 11.2-.6c6.8 0 8.3.1 11.4.6c10 1.5 16.8 3.3 26.3 6.8c1.6.6 3.4 1.3 4.1 1.5c.7.3 2.1.8 3 1.1c1 .4 2.2.8 2.8 1c.5.2 1.6.6 2.4.9c.7.3 1.9.7 2.6 1c5.9 2.2 6.5 2.5 6.6 2.9c.1.5-1.5 3.7-3.6 7.5c-2 3.4-2.9 5-3.3 5.9c-.6 1.2-8.1 12.2-9.9 14.7c-2.6 3.4-8.3 10.1-11.8 13.8c-5.2 5.6-14 13.2-20.5 17.8c-11 7.7-24.6 14.4-36.4 17.9c-1 .3-2.3.7-2.7.9c-1.3.4-4.7 1.2-8.3 2c-10.6 2.1-24.1 2.8-34.3 2zm-113.7-66.4c-3.7-.2-6.9-.7-12.1-1.8c-1.9-.4-4.3-.9-5.2-1.1c-.9-.2-2.1-.5-2.5-.8c-1.9-.9-8.6-5.9-9-6.6c-.6-.9-.3-.9 5.9.8c2.1.6 5.6 1.3 10 2c4.5.7 13.9.7 19.4 0c6.5-.9 10.6-1.7 17.1-3.4c2.1-.5 5.8-1.7 9.3-3c.9-.3 2.1-.7 2.5-.9c1.2-.4 3.9-1.5 4.5-1.7c.3-.1 1.1-.5 2-.8c3.2-1.4 12.9-6.1 15.9-7.7c.9-.5 2.2-1.3 3-1.7c.7-.4 1.9-1 2.6-1.4c2.1-1.2 10.9-6.2 11.8-6.8c1-.6 2.4-1.4 7.4-4.4c1.8-1.2 4.7-2.9 6.2-3.8c1.6-1 3-1.9 3.3-2c.3-.2.9-.6 1.4-.8c3.8-2.2 10.5-6.1 11.9-6.9c1-.5 2.7-1.4 3.8-2c4.9-2.6 10.3-5.2 12.8-6.2c2-.8 5.1-2 5.9-2.4c.5-.2 1-.4 1.2-.4c.2 0 .5-.1.7-.4c.3-.3.2-.4-.2-.7c-.2-.2-.7-.3-1-.3c-.3 0-1.3-.4-2.3-.8c-.9-.4-2.7-1.1-4-1.6c-1.3-.5-3-1.2-3.9-1.6c-.8-.4-2.3-1.1-3.1-1.4c-2.3-1-5.7-2.6-7.3-3.5c-1.5-.9-4.1-2.3-9-4.8c-4.5-2.4-4.8-2.6-5.3-2.8c-2.2-1.4-8.8-5-13.8-7.5c-7.6-3.7-8.3-4-12.3-5.5c-.8-.4-1.9-.8-2.3-.9c-.5-.2-1.8-.6-2.8-.9c-1-.3-2.4-.7-3.1-.9c-.6-.2-2.6-.5-4.3-.8c-4.2-.5-8.2-.2-10.4.8c-4.9 2.3-7.1 6-6.2 10.8c.5 2.9 1.8 5.1 5.4 9.1c2.8 3.2 4.8 6 5.9 8.3c1.4 2.9 1.5 3.4 1.6 7.1c.1 3.1.1 3.8-.4 5.5c-1.2 4.2-3.7 8.4-7.7 12.7c-1.2 1.2-6.6 5.7-8.2 6.8c-.6.3-1.4.9-2 1.3c-.9.7-3.4 2.2-5 3.1c-3.4 1.9-13.5 6.5-17.5 7.9c-3.3 1.1-10.2 2.9-13.5 3.6c-.7.1-2 .4-3 .6c-4.8 1-10.6 1.4-19.4 1.5c-4.7.1-10.2.1-12.2 0c-3.3-.2-3.6-.2-4.1-.8c-.4-.5-2.5-4.7-3.4-6.9c-.3-.8-.8-1.8-1.7-4c-.3-.6-.9-1.9-1.3-3c-.4-1-.9-2.2-1.1-2.6c-.2-.5-.4-1-.4-1.1c0-.2-.2-.7-.4-1.1c-.2-.4-.7-2-1.2-3.4c-.5-1.4-1.4-3.9-1.9-5.4c-.6-1.5-1.3-3.5-1.5-4.5c-.8-2.8-1.5-5.4-1.9-6.9c-.2-.7-.6-2.2-.9-3.4c-.3-1.1-.5-2.2-.4-2.4c.1-.2 1-.6 2-.9c1.7-.5 7.1-2.5 7.9-3c.3-.1 1.1-.5 1.9-.9c2.6-1.1 5.7-2.7 8.3-4.1c1.3-.8 2.6-1.5 2.9-1.6c.2-.1.7-.4 1.2-.7c1.9-1.1 5.1-3.1 5.5-3.3c.2-.1 1.1-.6 2.1-1.2c5.6-3.6 11.6-7.3 15.5-9.6c1.4-.9 3-1.9 3.5-2.2c.5-.4 1.9-1.2 3.1-1.8c1.2-.7 2.9-1.6 3.8-2.1c2.6-1.5 9.6-4.8 12.6-6c1.5-.6 3.3-1.3 3.9-1.5c1.1-.4 3.1-1.1 5.8-1.8c5.4-1.6 13.4-2.5 20.1-2.4c7.4.2 13.7 1.1 21.6 3.2c2.7.8 9 2.7 9.9 3.1c.5.2 1 .4 1.3.4c.2 0 .7.2 1.1.4c.5.2 1.9.7 3.2 1.2c4.6 1.8 8.7 3.8 17 8.1c1.6.8 4.2 2.2 5.9 3c1.6.9 3.1 1.7 3.2 1.8c1.2.8 9.9 5.2 14.6 7.3c.6.2 1.6.7 2.2 1c1.3.5 2.9 1.2 4.1 1.8c.5.2 1.2.4 1.5.5c.3.1.7.3.9.4c.5.4 8.7 3.1 10.8 3.6c3.9.9 7.8 1.7 10 2c6.5 1 8.8 1.4 9.8 1.6c.6.2 2.1.3 3.3.4c1.2.1 2.3.3 2.4.5c.2.3-.7.8-1.6 1c-.4.1-2.4.8-4.5 1.5c-2 .7-4.2 1.4-4.8 1.6c-1.4.4-4.1 1.5-5.2 1.9c-.4.2-1.5.6-2.5 1c-.9.4-1.9.8-2.1.9c-.2.1-.9.4-1.5.7c-.6.3-2.2 1-3.6 1.6c-1.3.7-2.5 1.2-2.6 1.2c-.2 0-8.6 4.2-8.9 4.5c-.3.2-3.2 1.8-7.5 4c-3 1.6-5 2.6-6.4 3.5c-.5.2-1.7.9-2.6 1.5c-1 .6-3.3 2-5.3 3.1c-1.9 1.2-5.4 3.2-7.7 4.6c-2.3 1.3-4.5 2.6-4.9 2.8c-.8.5-2.3 1.4-3.8 2.2c-.6.3-1.8 1-2.6 1.5c-.8.5-1.9 1.1-2.4 1.4c-.4.2-1.2.7-1.6.9c-.4.3-1.1.7-1.6 1c-1.6.8-3.9 2.1-4.9 2.7c-5.3 3.1-17.5 8.9-24.7 11.9c-.7.2-1.7.7-2.3.9c-.5.2-1.7.7-2.5 1c-.8.3-1.8.7-2.2.9c-.4.1-1.8.6-3 1c-1.3.4-2.8.9-3.5 1.1c-1.2.4-3 1-6.1 1.9c-2.6.7-8.2 2-13.9 3c-4.3.8-11 1-18.4.6zm258.7-62.4c-.7-.2-2.1-.5-3.1-.7c-.9-.2-2.7-.6-3.8-.9c-5-1.2-6.3-1.6-9.1-2.1c-5.6-1.3-8.9-1.9-12.7-2.5c-2.1-.4-4.6-.8-5.4-.9c-.8-.1-2.4-.4-3.5-.5c-1.1-.1-3.3-.4-5-.6c-4.9-.6-12.1-.9-21.5-.9c-4.9 0-8.9 0-9.1-.1c-.1-.1-2.6-.3-5.4-.5c-9.9-.7-12.5-.9-14.5-1.3c-1.1-.2-2.8-.5-3.9-.6c-2.7-.4-10.3-2-12.1-2.6c-.5-.2-2-.7-3.3-1c-5.1-1.5-9.7-3-15.7-5.3c-3.7-1.5-17.7-8.3-24.7-12.1c-1-.5-2.8-1.5-4-2.1c-1.3-.7-3.1-1.6-4-2.2c-1-.5-3.7-1.9-6-3.1c-7.8-3.9-7.8-3.9-5.5-5.1c.8-.4 1.9-1 2.4-1.3c.5-.3 1.6-1 2.4-1.4c1.3-.8 7.1-4.6 10.3-6.9c.8-.6 1.8-1.3 2.4-1.7c.5-.4 1.5-1.1 2.2-1.6c.7-.5 2.8-1.9 4.8-3.2c10.5-6.9 15.3-9.3 23.7-11.8c5.1-1.5 9.7-2 15.4-1.6c4.7.3 7.8.9 12.9 2.6c1.6.6 2.4.9 5.1 2.1c4.7 2 9.7 5 17.5 10.4c3.5 2.4 19.8 15.2 21.2 16.6c.2.2.8.6 1.3 1c.5.4 2.4 1.9 4.4 3.4c5 4 13.5 10.2 18.6 13.6c5.9 3.9 14.5 8.6 20.7 11.3c1.6.7 3.3 1.4 3.7 1.6c1.4.7 6.2 2.4 6.9 2.6c.4 0 .9.3 1.1.6c.4.4.4.6.1 1.8c-.6 2.6-1.5 6.3-1.8 6.8c-.2.7-.9.7-3 .2zm-185.4-87.5c-3.9-.3-8.8-1.1-11-1.8c-8-2.3-14.6-5.3-21.4-9.9c-7.7-5.1-15.4-13.4-20.2-21.8c-.8-1.4-1.3-2.5-2.4-4.9c-.3-.6-.8-1.7-1.1-2.5c-.4-.8-.7-1.6-.7-1.8c0-.1-.1-.6-.3-.9c-.8-1.5-2.2-6.7-3.1-11.5c-1.4-8-1-19 1.1-27c.6-2.2 2.1-6.7 3-9c3.2-8.2 9.3-17.3 16.1-24.1c6.1-6 15.1-12 22.4-14.9c.8-.3 2-.8 2.7-1c2.8-1.1 7.4-2.5 11.1-3.4c1.7-.3 5-.7 11.2-1.2c3.3-.3 2.9 0-3.5 3.1c-1.7.8-4.1 2.1-5.2 2.9c-6 4-12.7 10.7-16.8 16.8c-1.3 2-4.3 7.6-5.2 10c-.3.5-.6 1.3-.8 1.8c-1.5 3.5-3.2 9.9-3.7 13.9c-.1 1.2-.4 2.9-.5 3.8c-.8 5 .1 14.5 2 21.3c1.4 4.7 4.2 11.2 6.6 14.9c.5.7 1.2 1.9 1.8 2.7c4.2 6.5 11.9 13.7 19.9 18.6c6.8 4.2 16.4 7.3 25.8 8.2c6.4.6 14.7-.2 21-2c.7-.3 2.1-.7 3-.9c1-.3 2.4-.8 3.2-1.1c3.1-1.3 2.9-.7-.6 2.8c-1.6 1.5-3.7 3.4-4.7 4.2c-1.7 1.4-5.6 4.1-6.9 4.7c-.2.2-.9.6-1.4.9c-2 1.2-6.6 3.5-8.1 4.1c-.5.2-1.8.7-2.7 1c-2 .8-2.4.9-5.6 1.8c-4.2 1.1-8.3 1.8-12.6 2.2c-4.8.5-7.5.5-12.4 0zm100.3-31.4c0-.6-.4-4.1-.7-7.8c-1.1-11.6-2.6-19.1-4.2-22c-.5-.8-1-1.2-2.5-1.9c-2.6-1.3-9-2.9-16.3-3.9c-.7-.1-1.3-.4-1.3-.5c-.1-.3 0-.4 3.5-.8c8.1-1.1 15-3.2 16.4-5c.6-.8 1.7-3.6 2.1-5.8c.2-1 .5-1.9.5-2c.4-.6 1.8-11.1 2.3-16.8c.5-6.2.9-6.2 1.3-.1c.9 11.2 2.9 21.8 4.6 24.6c1.1 1.7 4.5 2.9 14.4 4.8c1.4.3 2.9.5 3.5.5c1.2 0 2.1.3 2 .6c-.1.1-1.7.5-3.6.8c-8.3 1.3-14.3 3.2-15.8 5c-2.1 2.5-3.8 10.9-4.9 24.5c-.6 6.2-.6 6.9-.9 6.9c-.1 0-.3-.5-.4-1.1z"/><path fill-rule="evenodd" d="M723.9 714c-3.8-.3-7.6-1.3-10.1-2.7c-3.7-1.9-6.8-5-8.6-8.5c-1.3-2.6-1.9-5.1-2.6-10.7c-.1-.8-.2-14.5-.2-30.3c.1-15.9 0-30.7-.1-32.8l-.2-3.9l-5.9-.1c-3.2-.1-6-.3-6.2-.4c-.8-.5.2-2 1.6-2.5c.5-.2 2-1.1 5-3.1c5.2-3.4 12.9-10.5 16.5-15.2c1-1.4 2.3-3.1 2.9-3.9c1.3-1.7 3-4.1 3-4.2c0-.1.6-1.1 1.3-2.4c1.3-2 1.4-2.2 2.2-2.2l.9 0l.1 13.7c.1 7.5.2 13.8.3 13.9c.1.1 5.8.2 12.5.3l12.3.1l.1 2.8c0 1.6 0 2.9 0 2.9c0 0-5.7.1-12.6.2l-12.5.1l0 31.5c-.1 26.5 0 32 .3 34.3c.6 4.9 1.9 7.9 4.5 10.4c2 1.8 3.4 2.5 5.9 3.1c2.5.5 2.9.5 5.7-.1c4.1-.9 6.9-2.4 10.1-5.8c1.1-1.1 2.1-2 2.3-2c.4 0 1.6 1.4 1.6 1.9c0 1.3-6 8.2-9 10.3c-5.8 4.2-12.9 5.9-21.1 5.3zm68.6 0c-3.4-.4-8.4-1.5-12-2.9c-8.3-3-16.6-9.7-21.2-17.1c-1.9-3-3.7-6.9-4.6-9.8c-1.7-5-2.4-9-2.6-14.6c-.4-9.6 1.6-19.1 5.6-26.7c3.9-7.5 9.8-14.1 16.3-18.3c3.8-2.5 5.1-3.1 10.1-4.9c6.9-2.5 19.7-2.6 26.6-.2c9.1 3.2 14.9 7.7 19.6 15c1.5 2.2 1.9 2.9 3.2 5.9c1.5 3.3 2.4 6.2 3.1 9.9c.6 2.8.8 9.6.4 10c-.2.3-4.6.4-31.2.4c-25.8-.1-31.1 0-31.4.3c-.3.3-.4.8-.3 3.6c.2 5.8 1.3 12.5 2.6 16.2c2 5.9 4 9.5 6.8 13.1c9 11.1 23.2 13.9 37.6 7.4c4-1.9 9.7-6.7 13.1-11c.9-1.1 1.3-1.2 2.2-.3c.5.5.8 1 .8 1.2c0 .4-2.1 3.6-4.3 6.4c-3.7 4.7-10 9.7-15.5 12.4c-7.3 3.4-16.1 4.9-24.9 4zm181.6 0c-3.8-.4-8.8-1.5-12.6-2.9c-9.4-3.5-18.3-11.7-23-21.2c-2.7-5.6-4-10.5-5-18.7c-.5-4.1 0-10.8 1.3-16.1c.9-3.8 1.4-5.5 1.8-6.5c.2-.4.4-.9.4-1.1c0-.6 3.1-6.7 4.7-9.1c3-4.7 5.2-7.1 9.4-10.7c6.8-5.6 14.3-8.8 23.1-9.8c6.9-.8 14.9.2 20.4 2.7c4.5 2 8 4.3 10.9 7c7.7 7.5 12 17.3 12.4 28.7c.2 3.7.1 3.9-.3 4.1c-.3.2-9 .2-22.5.2c-27.7-.1-38.7.1-39.2.6c-.8.7-.4 8.7.6 13.6c1.6 7.7 3.9 13.3 7.5 18c1.9 2.6 4.4 5.1 6.9 6.9c4.6 3.3 9.8 4.8 16.3 4.9c4.8 0 7.9-.6 11.9-2.2c5.5-2.2 11.5-6.7 15.2-11.3c.7-.9 1.5-1.6 1.7-1.6c1.1 0 2.5 1.9 1.8 2.4c-.2.1-1 1.2-1.9 2.6c-2.8 4.2-5 6.6-9.4 10.3c-3.7 3.1-9.3 6.1-13.8 7.3c-3.8 1.1-6.4 1.6-9.4 1.9c-3.8.3-5.2.3-9.2 0zm-521.1-2.3c-.7-.8 0-2 1.3-2.1c6.2-.5 9.8-1.7 11.8-3.9c1.2-1.2 1.6-2.1 2.2-4l.6-1.8l0-57c0-54.9 0-57.1-.5-58.5c-.6-1.9-1.9-4.2-2.9-5c-1.1-.9-3.3-1.9-5.1-2.3c-3.4-.7-5.5-1.1-6.4-1.1c-.9 0-1-.1-1.2-.7c-.3-1.5-2.3-1.4 27.6-1.5c25.5-.1 27.2 0 27.5.4c.7.9.1 2.1-1.1 2c-1.2-.1-6.4.8-8.3 1.5c-3.5 1.1-5.1 3.2-5.9 7.4c-.4 2.3-.4 6.8-.4 56.4c0 52.8.1 56.5.8 59.9c.6 2.6 2.4 4.1 5.5 4.6c2.3.4 21.5.3 24.4-.1c11.4-1.7 18.7-5.8 24.9-14.3c3.3-4.5 4.7-7 6.6-12.1c.3-.9.8-2.2 1.1-2.9c.3-.7.6-1.6.6-2c.1-.4.4-.9.6-1.2c.4-.5 1.9-.5 2.3-.1c.4.5-.1 4.6-1.4 13.3c-.2 1.4-.6 3.6-.7 5c-.6 4.3-1.1 8.4-1.5 10.8c-.2 1.2-.5 3.1-.7 4.2c-.5 4.2-.7 5-1 5.2c-.2.1-22.8.2-50.3.2c-38.6 0-50.1-.1-50.4-.3zm104.6.1c-.2 0-.4-.4-.4-.8c0-.8.5-1 3.6-1.7c2.4-.6 5.3-1.7 6.7-2.7c3.6-2.5 6.7-7.1 9.4-13.7c.6-1.7 1.4-3.6 1.8-4.4c.3-.8.7-1.6.8-1.9c.1-.3.6-1.4 1.1-2.6c.6-1.2 1.2-2.6 1.4-3.2c.2-.7.8-2 1.2-3c.4-1.1 1.1-2.9 1.6-4c.4-1.2 1-2.7 1.2-3.3c.2-.6 1.1-2.6 1.8-4.5c1.9-4.6 2.6-6.4 4.6-11.4c.9-2.3 2-5 2.4-6c.4-.9 1-2.2 1.2-2.8c.7-2 2.3-5.6 2.6-6.5c.2-.4.4-.8.4-.9c0-.1.2-.6.4-1c.2-.4.6-1.6 1-2.5c.4-1 .8-2.1 1-2.5c.2-.4 2.2-5.5 4.5-11.3c2.3-5.8 4.4-11 4.6-11.7c.3-.7.8-1.8 1-2.4c.9-2.4 1.8-4.4 2-4.8c.1-.2.7-1.7 1.4-3.3c.6-1.7 1.3-3.5 1.6-4.1c.5-1.2 1.6-4.1 2.5-6.3c.2-.6.9-2.3 1.5-3.6c1.1-2.7 1.8-4.3 2.5-6.3c.3-.7.8-2 1.1-3c.4-.9.8-2.1 1-2.5c.1-.4.4-1 .7-1.4c.4-.6.6-.6 2.2-.6c1.6 0 1.8 0 2.4.7c.3.4.6.9.6 1c0 .2.2.8.5 1.3c.3.6.5 1.2.5 1.3c0 .2.3 1 .6 1.8c.4.8.8 1.6.9 1.9c.3.8 2.7 6.5 3 7c.5 1.2 1.5 3.7 2.1 5.3c.7 1.7 1.2 2.8 1.8 4.2c2.4 5.6 3.2 7.5 3.6 8.5c1.1 2.8 1.5 3.7 2.5 6c.6 1.4 1.4 3.5 1.9 4.7c.5 1.1 1 2.4 1.2 2.8c.6 1.3 1.9 4.5 2.8 6.6c.5 1.2 1 2.4 1.1 2.7c.3.6 2.2 5.1 3.3 7.9c.8 1.9 3 6.9 3.8 8.8c.2.4.9 2.1 1.5 3.8c.7 1.6 1.3 3.1 1.4 3.2c.1.2.4.9.7 1.8c.5 1.2 1.8 4.3 3.4 8c.2.4 1.3 3.2 2.5 6.2c1.2 3.1 2.3 5.7 2.4 6c.1.3.5 1.3.9 2.2c.4.8 1.1 2.6 1.7 4c.5 1.3 1.2 2.9 1.5 3.6c.2.7.7 1.7.9 2.4c.3.6 1 2.4 1.6 4.1c1.9 4.6 2.2 5.5 3.8 8.6c4.1 8.3 7 10.7 14.2 11.7c2.5.4 2.8.5 3.1 1c.2.5.2.8-.1 1.2c-.3.5-.5.5-28 .5c-17.6.1-27.9 0-28.1-.2c-1.1-.5 0-2.5 1.1-2.1c.6.2 5.8-.7 7.3-1.3c1.9-.8 3.1-1.6 3.9-2.6c.7-1 1.5-3.1 1.5-4.4c0-1.9-1.3-5.8-4.5-14.1c-.8-1.8-1.9-4.6-2.5-6.2c-.6-1.6-1.2-3.2-1.4-3.7c-.2-.4-.4-.9-.4-1c0-.2-.2-.8-.5-1.4c-.2-.5-.7-1.6-1-2.3c-.3-.8-.7-1.9-1-2.5c-1.8-4.6-3.5-8.9-3.5-9.2c0-.2-.3-.7-.6-1l-.5-.7l-21.8 0c-23.9.1-22.6 0-23.1 1.6c-.1.5-.8 2.2-1.5 4c-.7 1.7-1.4 3.4-1.5 3.7c-.1.3-.6 1.5-1 2.6c-.4 1.1-.9 2.5-1.1 3c-.2.6-.6 1.6-.9 2.3c-.3.8-.7 1.9-1 2.7c-1 2.3-1.8 4.5-2 5.3c-.1.4-.6 1.6-1 2.7c-1.4 3.6-2.8 8-3 9.8c-.2.9-.2 2.5-.2 3.5c.5 5.3 3.7 7.8 11.6 9c2.9.4 3.6.7 3.6 1.5c0 .2-.2.5-.4.7c-.4.4-2.3.4-20.6.4c-11.1 0-20.3-.1-20.4-.2zm280.7-.1c-.4-.4-.4-1.3 0-1.6c.2-.2 1.6-.5 3.1-.7c4.5-.7 6.5-1.8 8-4.3c1.4-2.3 1.3-1.8 1.3-62.1c.1-50.6 0-55.5-.4-57.6c-.5-2.9-1.3-4.7-2.8-6.2c-1.4-1.3-3-1.9-6.5-2.3c-2.6-.3-3-.4-3-1.3c0-.8.8-1.3 2.4-1.5c1.5-.1 10.8-2.5 16.4-4.1c1-.3 2.4-.7 3.1-.9c1.9-.5 4.1-1.1 5.9-1.6c4.4-1.4 5-1.5 5.5-1.2c.4.2.4 1.8.5 68l.1 67.8l.6 1.7c1.1 3.2 3.5 4.8 8.1 5.6c2.9.5 3.2.6 3.4 1.3c.1 1.3 1.1 1.2-22.9 1.3c-17.7 0-22.5 0-22.8-.3zm48.2.1c-.3-.2-.4-1.4-.2-1.7c.1-.1 1.7-.4 3.5-.7c4.5-.8 5.9-1.5 7.7-4.1c.3-.4.7-1.7.9-3.1c.4-2.1.5-4.8.5-35c0-31 0-32.7-.5-34.4c-1.2-4.9-3.4-6.6-8.9-7c-1.4 0-2.8-.2-2.9-.4c-.5-.3-.4-1.6.1-1.9c.2-.1 1.1-.3 1.9-.3c.8-.1 3.9-.8 6.9-1.5c3-.7 6.1-1.4 6.9-1.6c2.1-.4 4.8-1.1 6.1-1.5c.6-.2 1.7-.4 2.5-.6c.8-.1 1.7-.3 2-.5c1-.3 6.5-1.3 6.8-1.2c.3.1.4 6.7.4 41.2c0 42.3.1 45 1 47.1c1.2 2.6 3.6 4.2 7.1 4.6c1.1.2 2.4.4 2.9.5c1.3.1 1.7 1.8.5 2.1c-.8.3-44.8.2-45.2 0zm132.8 0c-.4-.3-.3-1.6.2-1.8c.2-.1 1.6-.4 3.1-.6c4.4-.7 6.6-2 7.8-4.8c1-2.3 1.1-5.3 1.1-37.7c-.1-32.3-.1-34.7-1.2-36.8c-1.5-3-3.4-4-7.9-4.4c-2.7-.2-3.2-.4-3.3-.7c-.3-1.1.2-1.4 3.3-1.9c1.6-.3 4-.8 5.2-1.1c1.3-.3 2.9-.7 3.6-.9c.8-.2 2.2-.5 3.2-.7c.9-.2 2.3-.6 3.1-.8c3.7-.9 10.2-2.4 12.7-2.8c2.4-.5 2.3-.8 2.3 5.3c.1 2.9 0 7.2 0 9.5c0 3.5 0 4.2.3 4.2c.5 0 .9-.6 1.6-2c.3-.6 1.2-2.2 2-3.4c4.6-6.8 10.8-11.2 17.7-12.7c4.4-.9 8.7-.3 12.4 1.6c3.3 1.7 5.5 4.2 6.8 7.7c.5 1.4.6 2.1.6 4.9c0 3.5-.4 5.2-1.8 7.3c-.9 1.6-3.2 3.4-4.9 4.1c-2.1.7-5.1.8-6.7.1c-1.4-.6-2.5-1.6-2.5-2.3c0-.7-1.1-4.6-1.6-5.6c-1.3-2.5-3.2-4.1-6-4.8c-2.1-.5-2.8-.6-4.9-.1c-5.4 1.3-9.6 6-11.7 13.2c-1.3 4-1.3 4.7-1.3 30.5c0 25.6.1 28.5 1.1 30.4c1.3 2.8 3.7 4 8.7 4.7c2.7.4 3.3.5 3.5.9c.2.4.2.7 0 1.1l-.3.6l-22.9 0c-12.7 0-23.1-.1-23.3-.2zm-203.5-56.3c.1-.2.2-2.4.2-4.8c0-4.7-.4-7.7-1.8-12.5c-1.8-6.7-5.4-11.9-9.8-14.1c-2.2-1-5.5-1.9-7.5-1.8c-2 0-5.2.8-7.3 1.8c-5.1 2.6-8.6 6.7-11.7 14.3c-.7 1.6-1.6 4.5-2.2 7c-.6 2.5-1.4 9.3-1.3 9.8c.1.2.4.4.7.6c.3.1 8.9.2 20.5.1c16.8-.1 20-.1 20.2-.4zm180.7-.2c.5-.3.5-.4.4-4.6c-.1-7-1.1-11.7-3.8-17.8c-.8-1.9-3.1-5.1-4.7-6.6c-2.1-1.9-4.3-2.9-7.5-3.6c-2.4-.5-2.5-.5-5.1-.1c-1.5.3-3.1.7-3.7.9c-.6.3-1.1.5-1.2.5c-.6 0-3.9 2.6-5.5 4.2c-3.1 3.3-5.4 7.3-6.9 12.3c-.2.9-.6 2.2-.9 3c-1 3.3-2 10.9-1.6 11.8c.2.4.9.5 7.6.5c4 .1 12.9.1 19.8 0c10.6-.1 12.6-.1 13.1-.5zm-357.3-2c.2-.1 0-1.5-.6-2.7c-.3-.8-1-2.7-1.6-4.2c-.6-1.5-1.2-3.1-1.4-3.5c-.2-.4-.6-1.5-1-2.4c-.3-.9-.8-2-1-2.4c-.6-1.5-1.6-3.8-2.2-5.5c-.4-.9-.8-1.9-.9-2.2c-.1-.2-.3-.5-.3-.7c0-.2-.6-1.8-1.6-4.1c-.7-1.5-1.3-3-1.9-4.4c-.4-.8-.7-1.6-.7-1.8c0-.1-.2-.6-.3-.9c-.2-.4-.5-1.1-.7-1.7c-.2-.5-.4-1-.5-1.2c-.1-.1-.3-.5-.4-.8c-.7-2.6-4.2-10.7-4.6-10.7c-.2 0-.5.5-.7 1.1c-.3.7-.7 1.7-1 2.3c-.5 1.1-2.5 6.1-3 7.6c-.3.8-.8 2-1.8 4.7c-.5 1.3-.9 2.2-2.2 5.6c-.8 1.9-2.4 6-3.3 8.5c-1.5 3.9-2.3 6-3 7.9c-.3.6-.8 1.9-1.1 2.8c-.4 1-.8 2.1-1 2.5c-.2.4-.6 1.4-.9 2.3c-.3.8-.7 1.9-.9 2.4c-.5 1.2-.3 1.4 1.3 1.5c1.1.1 37.1.1 37.3 0zm-92.2-37.1c-.4-.9 0-1.5 2.2-3.2c3.7-2.8 7.2-6.5 8.7-9.4c2.3-4.4 2.7-8.1 1-9.9c-.5-.6-.8-.7-2.7-.7c-2.4 0-4-.5-6-1.9c-2.3-1.6-3.7-4.8-3.7-8c0-3.9 2.5-7.7 6.2-9.4c1.6-.8 1.8-.8 4.8-.8c2.7 0 3.3.1 4.5.6c3.8 1.7 5.9 4.1 7.3 8.5c.5 1.4.6 2.2.6 5.6c0 3.4-.1 4.4-.6 6.2c-1.6 6.1-3.9 10-8.5 14.5c-3.2 3.1-6.3 5.4-9.6 6.9c-.7.3-1.7.8-2.3 1c-1.4.7-1.6.7-1.9 0zm358.9-15.2c-3.5-.7-6.7-3.4-8.2-6.9c-.8-1.9-.8-2.1-.8-5c0-2.6.1-3.2.7-4.8c1.2-3.4 4.2-6.4 7.7-7.5c3.1-1.1 7.6-.6 10.7 1.2c3.5 1.9 5.8 6.1 5.8 10.6c.1 5.4-2.5 9.6-7.2 11.6c-2.1 1-6.1 1.3-8.7.8z"/><path fill-rule="evenodd" d="M442.9 863c-6.7-.7-14.4-3.9-19.8-8.3c-2.7-2.2-6.7-6.5-8.5-9.1c-.7-1-3.6-6-3.6-6.2c0-.1-.2-.6-.4-1c-.8-1.9-2.2-6.4-2.9-9.9c-.5-2.3-.5-3.4-.6-9.4c0-7 .2-8.3 1.6-13.3c1.9-7 6.7-15.3 11.3-19.7c1.3-1.1 5.7-4.7 6.9-5.5c3.7-2.4 8.7-4.5 14.1-5.7c6.5-1.6 16.3-1.2 23.3.9c2.4.7 7 2.9 8.5 4.1c.7.5 1.4.8 1.6.8c.6-.3.5-32.7-.1-36.2c-.8-5.1-3.2-7-8.9-7.4c-1.7-.1-2.2-.3-2.4-.6c-.3-.6-.1-1.2.6-1.4c1.7-.3 5.8-1.2 7.2-1.6c.8-.2 2.5-.7 3.7-1c3.3-.9 5.8-1.5 10.7-3c.9-.3 2.9-.9 4.4-1.3c1.5-.5 3-1 3.3-1.1c.4-.1.7 0 .9.3c.4.4.5 5.6.4 59.9c0 53.4.1 59.8.4 61.7c1 4.9 3.1 6.7 8.6 6.9c2.5.1 3 .3 3 .9c.1.4-1 1.2-1.6 1.2c-.3 0-1.3.2-2.2.4c-1.4.3-3.2.6-10.4 1.8c-9.4 1.6-16.4 2.5-16.8 2.1c-.1-.1-.3-2.8-.4-5.9c-.1-4.2-.2-5.6-.4-5.6c-.2 0-1 .7-1.8 1.6c-2.3 2.6-6.1 5.6-9.4 7.3c-5.8 3-12.5 4.1-20.3 3.3zm95.8 0c-2.9-.5-6.9-1.8-9.4-3.2c-5.7-3.1-9.3-7.8-11.3-15.2c-1.1-4-1.2-6.1-1.2-30.3c-.1-25.7-.1-26.7-1.6-29.3c-1.2-1.9-2.4-2.7-5.1-3.3c-1.2-.2-2.7-.4-3.4-.4c-1.2-.1-1.7-.4-1.7-1.2c0-.7.4-1 1.9-1.2c.7 0 2.1-.3 3.1-.5c1-.2 3.2-.6 4.8-.9c2.9-.5 6-1.2 9.8-2c1.2-.3 3.2-.7 4.5-1c1.2-.3 3.1-.7 4.1-1c1.1-.2 2.1-.4 2.3-.3c.6.1.7 3 .7 34.9c.1 15.8.2 29.6.3 30.5c.6 4.9 1.8 7.8 4.4 10.5c1.9 1.9 4.4 3.4 7.1 4c1.9.5 6.2.5 8.5.1c2-.3 4.9-1.3 6.2-2c1.5-.9 4.3-3.1 5.2-4c.9-.9 3.1-4.2 3.1-4.5c0-.1.2-.7.5-1.3c.5-1.1.5-1.5.4-27.1l0-25.9l-.6-1.7c-.6-1.7-2.1-3.7-3.3-4.3c-.9-.5-3.6-1.1-5.4-1.3c-.8-.1-1.6-.3-1.8-.4c-.5-.4-.4-1.4.1-1.5c1-.3 4.3-1 5.9-1.2c3.6-.5 9.9-1.8 13.3-2.6c1.5-.3 4.5-1 8.3-1.9c1.2-.3 2.1-.4 2.4-.2c.5.3.6 6.3.7 42.9c0 20.2.1 30.4.3 31.9c.7 5.4 3.3 7.6 9.4 7.6c2 .1 2.6.4 2.1 1.4c-.2.5-.5.6-1.7.8c-.8.1-1.9.2-2.4.4c-1.8.4-11.5 2.1-17.4 3.1c-7 1-8.8 1.2-9.2.8c-.3-.3-.4-2-.5-6.9c-.2-6-.2-6.5-.6-6.5c-.3 0-.7.4-1 .9c-1.3 2.1-5.4 5.9-9.3 8.5c-3.1 2.1-5.5 3.2-9.2 4.2c-2.1.6-3 .7-7.1.7c-2.6.1-5.4 0-6.2-.1zm281.3 0c-3.5-.4-9.4-2.2-12.5-3.7c-6.9-3.3-11.5-7.4-15.8-13.8c-2.9-4.5-4.3-7.7-5.7-13.9c-.3-1.2-.6-2.4-.6-2.7c-.4-1.6-.9-6.6-.9-8.8c0-3.8.7-10 1.3-12.6c1.3-4.8 3.1-9.3 5.2-12.7c.2-.5.7-1.3.9-1.7c.2-.4 1.2-1.7 2.1-3c5.3-7 12.6-12.1 20.7-14.4c4.9-1.4 5.9-1.6 11.3-1.6c5.8 0 8.1.4 13 2.1c4.9 1.6 8 3.4 11.6 6.6c1.6 1.5 5.4 5.9 5.4 6.3c0 .1.3.6.6 1.1c1 1.3 3 5.7 3.6 7.4c1.6 4.7 2.8 14 2.1 15.4l-.3.5l-28.2 0c-26.4 0-28.3 0-28.7.4c-.9 1 .1 12.4 1.5 17c1 3.1 1.3 3.8 1.8 5.2c1.1 2.7 1.8 3.9 4.4 7.5c1.2 1.8 4.7 5.1 6.4 6.2c2.8 1.9 4.7 2.7 8 3.6c2.2.7 2.8.7 7.3.7c4.4 0 5.1 0 7-.6c7.5-2.1 12.3-5.2 17.7-11.6l1.2-1.5l.9.6c1.5.9 1.6 1.2.5 2.7c-7.7 10.8-15.6 16.4-26.9 18.8c-2.6.6-11.9.9-14.9.5zm70.5 0c-2.5-.2-6-.8-8.4-1.4c-.8-.2-2.1-.5-2.9-.7c-.7-.2-2-.5-2.8-.8c-.8-.2-2.6-.5-4-.6c-1.4-.2-2.7-.4-2.8-.6c-.3-.2-.3-2.8-.3-12.4l.1-12.1l.9-.1c1-.1 1.3.2 1.6 1.8c.4 2.6 2.1 6.9 3.9 10.2c2.1 3.8 6.1 7.9 9.6 9.8c.2.2.7.4 1 .6c1.3.7 2.4 1.1 4.8 1.7c5.5 1.3 11.7.3 15.6-2.6c3.3-2.5 5.2-6.4 5.2-10.9c0-7-3.8-11.3-14.7-16.8c-2.3-1.1-6-3-8.3-4.1c-4.4-2.2-6.2-3.2-9.4-5.7c-6.1-4.6-8.5-8.5-9.7-15.4c-.7-3.7-.5-6.4.7-10.8c1.6-6.2 5.8-11.4 12.2-14.8c2-1.1 4.4-2 7.4-2.7c1.6-.4 2.9-.5 8.3-.5c7 0 7.8.2 14.8 2c2.6.7 3.7.9 5.6.9c1.6 0 2.4.2 2.6.4c.2.2.2 3.8.2 11l-.1 10.7l-.8.1c-1.1.1-1.5-.2-1.8-1.5c-1.1-4.8-4.2-10.5-7.4-13.6c-5-5-11.4-7-17.4-5.5c-6.4 1.6-10.2 6.3-10.2 12.6c0 3.5 1.2 6.2 3.8 8.8c2.6 2.5 6.2 4.7 12.8 7.8c6.8 3 9.1 4.2 11.9 5.8c3 1.7 3.6 2.1 5.5 3.7c3 2.4 6.1 6.5 7.1 9.3c1.4 3.7 1.7 5.4 1.7 9.4c0 3.1-.1 4.4-.5 6.2c-1.2 5.1-3.2 8.9-6.8 12.4c-6.8 6.7-16.3 9.5-29 8.4zm77.9 0c-5.8-.7-12.4-3.1-17.6-6.4c-6.2-4.1-12.5-11.8-14.9-18.6c-1.3-3.6-2.5-8.4-3-12c-.7-4.8-.3-13.8.7-17.2c.2-.7.6-2 .9-3c2.6-9.2 7.7-17 14.6-22.7c3.5-2.8 7.5-5.3 10.1-6.1c.5-.2 1-.4 1.2-.5c.4-.3 3.5-1.2 6.4-1.8c3.5-.8 11.2-.8 14.4-.1c2.8.6 6.4 1.6 7.6 2.1c5.4 2.4 9.2 5.1 13.1 9.5c1.5 1.8 3.1 4.3 4.6 7.3c2.4 4.6 4 11.8 4 17.7c0 2-.3 2.4-1.8 2.3c-.5-.1-13-.1-27.9 0c-26.8 0-27.1 0-27.6.5c-.4.5-.5.7-.3 4.2c.3 8.9 2.8 17.8 6.8 23.8c5.8 8.7 14.8 13.1 25.1 12.3c3.9-.4 6.7-1.1 10.4-2.9c4.7-2.3 7.9-4.8 11.3-8.6c1-1.1 1.9-2 2-2c.3-.1 1.2.7 1.5 1.2c.2.3.1.6-.3 1.3c-.4.4-1.1 1.6-1.8 2.6c-6 9.1-16.8 15.8-27.6 17.1c-2.4.3-9.3.3-11.9 0zm139.3 0c-1.6-.3-4.6-1.1-6.2-1.8c-3.7-1.7-7.1-5-8.7-9c-2.3-5.5-2.3-4.8-2.3-40c0-23.5-.1-29.9-.3-30.3c-.3-.3-1-.4-5.4-.5l-5.1 0l.1 1.1c.4 2.8.5 5.5.2 7.2c-.5 3.6-2.6 6.6-5.5 8c-1.2.6-1.7.7-3.6.7c-3.8 0-4.9-.9-5.5-4.3c-.6-2.7-1.4-4.4-2.9-5.8c-3.9-3.9-10.1-2.7-14.4 2.7c-2 2.6-3.6 6.8-4.5 11.5c-.4 2.2-.4 4.5-.3 25.6c.1 20.9.2 23.4.5 24.9c.6 2.2 1.6 3.6 3.4 4.5c1.1.5 5.6 1.5 7 1.5c1.1 0 1.6.3 1.6 1.1c0 .3-.2.7-.3.8c-.3.3-5.4.3-21.8.3c-19.3 0-21.4 0-21.5-.3c-.5-1.3.1-1.9 1.9-1.9c1.5 0 5.3-1.1 6.5-1.8c1.2-.7 2.2-2 2.8-3.7c.4-1.1.5-3 .5-33c0-30.3 0-32-.5-33.4c-.5-1.7-1.8-3.3-3.2-4.2c-1.1-.8-3.6-1.4-6-1.5c-2-.1-1.8-.1-2-.8c-.3-.8.2-1.1 2.1-1.5c1-.2 3.2-.6 4.8-1c1.7-.3 3.9-.8 4.9-1c1-.2 1.9-.4 2-.5c.1-.1 1.1-.3 2.1-.5c1.6-.3 6.3-1.4 10.4-2.5c2.1-.5 4.2-.7 4.3-.4c.1.2.3 4.2.3 9.1c.1 4.8.2 8.8.3 8.9c.2.3 1-.7 1.7-2.4c.5-1 1.7-2.9 2.6-4.2c6.1-8.2 11.9-11.2 20.2-10.6c4.4.3 8 2.4 10.8 6.2c.7.9 1.1 1 1.1.2c0-1 .6-1.5 3.5-3.1c1.6-.9 3.6-2.2 4.5-2.9c2.5-2 8-7 9.4-8.6c.6-.8 1.2-1.5 1.3-1.6c.6-.5 3.7-4.6 5.2-6.7c1.7-2.5 2.2-3.4 3.4-5.6c.6-1.1 1.5-2.1 1.9-2.1c.1-.1.4.1.6.3c.3.4.4 2 .4 12.7c0 8.6.1 12.4.3 12.6c.2.3 2.4.4 11.3.4c6.1 0 11.2.1 11.4.2c.3.2.5 4.6.1 5c-.1.1-4.9.3-11.6.3l-11.4.1l0 31c0 29.8 0 31 .5 32.7c.8 2.9 1.6 4.4 3.3 6c2.3 2.4 4.9 3.4 8.5 3.4c2.6 0 4.4-.5 6.5-1.6c1.6-.9 4.7-3.3 5.7-4.4c.3-.3.7-.5.9-.5c.4 0 1.5 1.3 1.5 1.7c0 .5-2.2 3.4-3.8 5c-1.5 1.6-5.4 4.7-7.1 5.6c-1.8 1-5.8 2.2-8.9 2.7c-1.9.3-7.5.3-9.5 0zm-462.6-2.1c-.2-.1-.3-.6-.3-.9c0-.8.1-.9 2.4-1.1c2.4-.3 5.6-1 7-1.5c3-1.2 4.4-3.1 5.2-6.9c.5-2 .5-4.3.5-53.3c0-48.3 0-51.2-.5-53.3c-1-5-3.1-7-8.4-8.3c-1.3-.3-3.2-.6-4.1-.6c-2.2 0-2.7-.3-2.6-1.5l.1-.9l9.4-.1c5.1-.1 19.7-.2 32.5-.2c21.2 0 23.6 0 29.1.5c8.6.7 13.6 1.6 19.2 3.5c4.7 1.6 5.2 1.8 8.6 3.5c6.4 3.1 11 6.2 15.7 10.7c5.3 5.2 7.9 8.8 11.7 16.1c1 2 1.5 3.2 2.8 6.4c1.3 3.1 3.2 11.9 3.6 16.6c.3 3.4.3 10.8 0 14.5c-1.1 13.3-6.5 26-15.3 36.4c-3.4 3.9-9.2 8.6-14.3 11.5c-1.8 1-5.3 2.8-6.2 3.1c-.4.2-1.4.6-2.2.9c-1.9.8-5.4 1.8-9.4 2.9c-2.3.6-3.9.9-9 1.6c-3.8.6-14 .7-43.9.7c-24 0-31.4 0-31.6-.3zm68.1-5.4c3.3-.6 6.1-1.3 7.9-2c3.8-1.4 4.7-1.8 6.3-2.6c3.8-2.1 7.1-4.7 10.9-8.6c4.6-4.8 8.2-10.7 11-18.3c4.1-10.7 5.4-28.1 3.1-40.8c-.8-4-2-8.4-3.3-12c-.5-1.4-4.1-8.7-5.3-10.6c-1.8-3-3.4-5-6.8-8.3c-1.8-1.9-3.8-3.8-4.3-4.3c-1.7-1.4-5.5-3.8-8.1-5.1c-1.4-.7-2.8-1.3-3.1-1.5c-2.1-1.1-9.4-3.1-13.5-3.7c-3.4-.5-23.6-.4-24.6.1c-1 .4-1.4 1.3-1.6 3.7c-.2 1.1-.3 24.3-.3 53.3c0 56 0 55.1 1.3 57.6c1.3 2.3 2.6 2.8 8.4 3.5c2 .2 5.5.3 11 .2c7.1 0 8.5-.1 11-.6zm-255.4-.1c4.8-.8 8.1-2.4 11.7-5.8c2.2-2.1 3.7-4.1 4.7-6.4l.6-1.3l0-23.8c0-26.1.1-23.7-1.5-27.1c-2-4.3-5.7-8.1-10.1-10.2c-2.8-1.3-5.3-1.9-8.8-1.9c-2.9 0-3.6.1-5.8.7c-4.5 1.3-7.1 2.9-10.4 6.4c-2 2.1-3.7 4.5-5 7c-3.6 7.2-5.6 20-4.6 30c.8 7.5 2.4 13.7 4.7 18c4.3 8 9.9 12.6 17.5 14.2c2.6.6 3.9.7 7 .2zm385-46.8c.5-.6.1-9.6-.5-12.7c-1.4-6.2-3.4-10.5-6.2-13.2c-2.6-2.3-4.7-3.5-8-4.1c-1.9-.4-2.2-.4-4.5 0c-2.6.4-4.3 1.1-6.3 2.3c-4.6 2.9-8.6 9.1-10.5 16.1c-1.5 5.9-2.2 11.3-1.5 11.8c.2.1 8.4.2 18.7.2c16.1 0 18.5 0 18.8-.4zm148 0c.4-.6.1-9.1-.5-12.1c-1-4.8-2.5-8.7-4.1-11.1c-1-1.5-3.4-3.9-4.6-4.6c-2.4-1.5-5.5-2.6-8-2.6c-1.6 0-4.3.8-6.1 1.7c-2.9 1.3-7 5.2-8.5 7.9c-.3.4-.8 1.3-1.1 2c-1.1 1.7-2.2 4.9-3.4 9.1c-.3.9-.7 3.4-1 5.5c-.5 3.1-.5 3.9-.3 4.2c.3.4 2.6.4 18.8.4c16.1 0 18.5 0 18.8-.4zm-174.4-44c-.2-.2-.4-.5-.4-.7c0-.2.7-1.6 1.5-3.2c.9-1.6 2-3.7 2.6-4.8c.6-1.1 1.5-2.6 1.9-3.4c.5-.8 1.6-2.9 2.6-4.7c.9-1.9 1.8-3.5 1.9-3.7c.1-.1.8-1.3 1.5-2.7c2.2-4.2 2.9-5.1 4.5-5.9c1.2-.5 1.7-.6 4.4-.6c2.6 0 3.1.1 4.2.6c2.9 1.4 4 3.3 3.9 6.7c-.1 2-.2 2.3-1.1 3.6c-1.1 1.7-4.1 4.1-8.4 6.9c-1.6 1-3.6 2.3-4.5 3c-1.7 1.2-5.7 3.9-10.8 7.3c-1.6 1.1-3 2-3.2 2c-.1 0-.4-.2-.6-.4z"/><path fill-rule="evenodd" d="M436.7 927.7c-1.7-.3-4.4-1.6-5.4-2.8c-.5-.6-1.1-1.6-1.5-2.4l-.7-1.4l0-10.2c0-8.7.1-10.2.4-10.4c.5-.3 1.5-.1 1.9.4c.2.2.3 3.5.3 9.9c.1 8.6.1 9.7.5 10.6c.7 1.4 1.8 2.6 3.2 3.4c1.1.5 1.5.6 4 .6c3-.1 3.9-.3 5.4-1.7c.6-.4 1.3-1.4 1.6-2.1l.7-1.2l0-9.7c0-9 .1-9.8.5-10.1c.5-.4 1.6-.2 1.9.4c.1.2.2 4.5.2 9.6c.1 8.4 0 9.4-.4 10.9c-.6 2-1.1 2.8-2.3 3.9c-2.3 2.1-6.2 3-10.3 2.3zm259.7.1c-3.1-.5-5.3-1.9-6.6-4.2c-1.1-1.8-1.3-4-1.3-13.6l0-9l.6-.4c.7-.5 1-.5 1.5 0c.4.4.4 1.6.4 9.8c0 9 0 9.4.5 10.5c1.3 2.9 3.4 4.3 6.6 4.5c3.4.3 5.5-.6 7.1-2.8c1.2-1.6 1.3-3 1.3-12.7c0-5.5.1-8.9.3-9.2c.3-.5 1.5-.6 1.9-.1c.2.2.3 3.8.3 10.5c.1 10.1.1 10.3-.5 11.5c-1.1 2.5-2.5 3.7-5.2 4.7c-1.5.5-5.1.8-6.9.5zm224.4 0c-1.3-.1-3.8-.9-5-1.5c-1.4-.7-3.6-2.8-4.6-4.4c-1.6-2.3-2.1-4.3-2.1-7.9c.1-2.7.1-3.3.7-4.8c1.2-3.1 2.8-5.1 5.5-6.8c2.5-1.6 5-2.2 7.9-2.2c3.6 0 6.4 1 9 3.2c1.8 1.5 2.6 2.6 3.7 4.8l1 1.9l0 3.7c0 3.8-.2 4.6-1.8 7.7c-.8 1.6-2.8 3.7-4.4 4.5c-2.5 1.4-6.9 2.2-9.9 1.8zm-564.6-.4c-.1-.3-.2-6.3-.2-13.4c0-14.2 0-13.9 1.5-13.6c1.3.3 1.2.3 1.2 6.1c0 4.3.1 5.5.4 5.7c.5.4 14.3.7 14.8.3c.3-.3.3-1.5.3-5.9c0-5.5.1-5.6.6-6c.7-.5 1.3-.5 1.7 0c.4.6.7 25.9.3 26.6c-.2.4-.6.6-1 .6c-1.6 0-1.6.2-1.6-6.4c0-4.1 0-6.2-.2-6.3c-.2-.1-3.6-.1-7.6-.1c-5.3 0-7.3.1-7.5.3c-.1.2-.1 2.9-.1 6.1c0 4.1-.1 5.8-.4 6.1c-.4.4-2.1.3-2.2-.1zm36.1 0c-.4-.3-.4-.7.1-1.7c.2-.5.8-2.2 1.5-3.8c.6-1.7 1.3-3.5 1.6-4.1c.2-.7.8-2 1.1-3c.4-1.1.8-2 .9-2.2c.1-.1.4-.7.6-1.2c.2-.6.7-1.9 1.1-2.9c.4-1 1.3-3.2 1.9-4.9l1.2-3.1l1-.1c1.6-.2 2.2.4 3 2.7c.4 1.1.8 2.4 1 2.8c.4.7 1.1 2.4 2.3 5.2c.2.7.5 1.5.7 1.7c.2.4 1 2.4 2.1 5.3c1.4 3.7 1.8 4.8 2.2 5.5c.2.4.4.9.4 1.1c0 .2.2.8.5 1.3c.7 1.3.5 1.8-.9 1.8c-1.2 0-1.3-.2-2.2-2.4c-.4-1-.8-2-.9-2.3c-.1-.2-.3-.7-.4-1c-.3-1.2-.8-1.3-7.6-1.1l-6.3.1l-.5 1.1c-.2.7-.7 2-1.1 2.9c-.4 1-.8 1.9-.9 2.1c-.5.4-2.1.6-2.4.2zm80.9.1c-.3-.2-.3-1.8-.3-11.9c.1-6.5 0-11.9-.1-12.2c-.1-.4-.5-.4-3.9-.4c-4.3 0-4.7-.1-4.6-1.5l.1-.9l9.4 0c6.8-.1 9.6 0 9.9.2c.4.3.4 1.6 0 1.9c-.2.1-1.9.3-4 .3c-2.1 0-3.9.1-4 .1c-.1.1-.2 5.6-.2 12.2c0 11.5 0 11.9-.5 12.2c-.6.3-1.3.3-1.8 0zm26-.1c-.3-.3-.3-26.6 0-26.8c.5-.3 15.6-.1 16 .2c.4.3.4 1.6 0 1.9c-.3.2-2.3.3-6.8.3c-5.3-.1-6.5 0-6.7.3c-.3.5 0 8.7.3 9.1c.3.3 1.4.4 5.9.3c5.9 0 6.3.1 6.3 1.2c0 1-.2 1.1-6.2 1.1c-4.1 0-5.7.1-5.9.3c-.3.2-.3 1.7-.3 5c0 4 0 4.7.3 4.8c.3.1 3.2.1 6.5 0c6.8-.2 7.2-.1 7.2 1.3c0 .6-.2.9-.5 1.1c-.7.3-15.7.2-16.1-.1zm55 0c-.3-.8-.2-26.6.1-26.8c.1-.1 2.8-.1 5.8-.1c6.1 0 7.1.2 9.1 1.6c1.5 1.1 2.4 2.4 3.1 4.5c.7 2.4.3 5.1-1.1 7.2c-2 2.9-4.2 3.7-10 3.7c-2.7 0-3.9.1-4.1.3c-.3.2-.3 1.6-.3 4.8c0 3.2-.1 4.6-.4 4.9c-.4.4-2.1.3-2.2-.1zm50.6-.1c-.3-.3-.6-.9-.7-1.2c-.2-1-1.8-4.7-2.1-4.9c-.2-.3-12.7-.3-13.4 0c-.2 0-.5.6-.6 1.1c-.4 1.6-1.5 4.3-1.9 4.8c-.6.6-2.6.6-2.6 0c0-.4.5-2 1-3.2c.1-.3.5-1.3.9-2.3c.3-.9.9-2.3 1.1-2.9c.3-.7.5-1.4.5-1.5c0-.2.2-.8.5-1.3c.3-.6.5-1.1.5-1.2c0-.1.4-1 .8-2c1.1-2.2 4.1-9.8 4.3-10.8c.3-1 1.3-1.7 2.4-1.5c.5.1 1.1.3 1.3.6c.2.2 1.2 2.5 2.2 5c1.9 4.8 2.8 7.1 3.4 8.4c.4 1 1.2 2.8 2 5c.3.9.8 2.2 1.1 2.8c1.2 2.8 1.8 4.6 1.7 5c-.1.7-1.7.7-2.4.1zm17.4.1c-.2-.6-.2-26 0-26.5c.1-.4.9-.4 6.4-.4c4.9 0 6.5.1 7.4.4c2 .7 3.4 2 4.5 4.1c.5 1 .6 1.5.6 3.6c0 2.3 0 2.7-.7 3.9c-.9 1.7-1.7 2.5-3.4 3.4c-1.5.7-1.6 1.4-.6 2.7c.3.5.6.9.6 1c0 .1.4.8 1 1.6c2.4 3.6 3.8 5.9 3.6 6.2c0 .2-.5.4-1.1.4c-1.5 0-1.6-.1-6.8-8.9c-.5-.8-1.1-1.7-1.4-1.8c-.5-.4-6.8-.4-7.3-.1c-.2.2-.3 1.4-.3 4.9c.1 5.3 0 5.9-1.6 5.9c-.5 0-.9-.2-.9-.4zm35.3.1c-.3-.2-.3-2.3-.3-13.4c.1-7.3.2-13.3.3-13.4c.3-.3 14.8-.2 15.2.1c.4.3.4 1.6 0 1.8c-.1.1-2.9.2-6.3.2c-3.9 0-6.1.1-6.3.2c-.5.4-.5 9.3 0 9.7c.2.2 2.4.3 6.4.4l6.1 0l.1.9c.2 1.5.1 1.5-6.4 1.5c-3.8 0-6 .1-6.1.2c-.2.2-.3 2.2-.2 5.7c0 3.5-.1 5.5-.2 5.8c-.3.6-1.6.7-2.3.3zm68.6-.1c-.1-.1-.1-6.2 0-13.5l0-13.3l1.3 0c1.4-.1 1.7.1 2.7 1.8c.3.5 1.2 1.9 2 3.2c.8 1.3 1.6 2.6 1.8 2.9c.1.2.6 1 1.1 1.7c2.3 3.5 3 4.7 3 5c0 .1.2.4.4.5c.5.5 1.2 0 1.6-.9c.1-.4 1.1-2.1 2.1-3.6c1-1.6 2.4-3.9 3.2-5.2c.7-1.2 1.5-2.6 1.8-3.1c1.4-2.3 2.4-3 4-2.4l.7.2l0 13.2c0 10-.1 13.3-.4 13.6c-.3.3-1.4.3-1.8.1c-.2-.2-.3-3.1-.4-10.5c0-5.6-.1-10.4-.1-10.7c-.2-.9-.8-.3-2.3 2.1c-.8 1.4-1.7 3-2 3.5c-.3.5-.6 1-.7 1.2c-.3.8-2.2 4-3.4 5.9c-1.4 2-2 2.4-2.6 1.3c-.1-.3-.6-1.1-1.1-1.9c-.5-.8-1.2-1.8-1.5-2.4c-.5-.9-1.2-1.9-4-6.2c-.4-.7-1-1.8-1.3-2.4c-.4-.9-.7-1.3-1-1.2c-.4.1-.5.7-.6 10.4c-.1 6.7-.2 10.5-.4 10.7c-.3.4-1.9.4-2.1 0zm43.1 0c-.1-.2-.2-5.4-.1-13.6l0-13.2l7.9 0c8.4-.1 8.2-.1 8.2 1.2c.1 1.2-.2 1.2-7 1.2c-5.2-.1-6.3 0-6.5.3c-.3.5-.3 8.3.1 8.8c.3.3 1.1.4 6.1.5c5.1.1 5.7.2 6 .6c.2.2.3.6.3.8c0 .9-.4 1-6.2 1c-4.1 0-5.7.1-5.9.3c-.3.2-.3 1.6-.3 4.9c0 4.3 0 4.5.5 4.8c.3.2 2.6.3 6.6.2c5.7 0 6.2 0 6.5.4c.4.6.4.9 0 1.5c-.2.4-1 .4-8.1.5c-5.7 0-7.9 0-8.1-.2zm32.1 0c-.4-.4-.4-26.5 0-26.8c.1-.1 2.8-.1 6-.1c6.2 0 7.6.2 9.5 1.4c2.9 1.9 4.3 5.7 3.3 9.1c-.6 2.3-2.1 4-4.4 5.3c-1 .5-1.2 1.2-.4 2.2c.3.4.9 1.3 1.3 1.9c1.1 1.8 2.3 3.8 3.3 5.3c1.1 1.5 1 2.1-.3 2.1c-1.4 0-1.3 0-6.2-7.5c-.6-1-1.3-2-1.4-2.4c-.4-.9-1.2-1.1-4.9-.9l-3.2.1l-.1 5c0 3.2-.2 5.1-.3 5.3c-.4.4-1.8.5-2.2 0zm34.9 0c-.3-.8-.2-26.1.1-26.7c.3-.6 1.5-.6 2.1-.1c.3.4.3 1.9.3 13.7l-.1 13.3l-1.1.1c-.9.1-1.2 0-1.3-.3zm19.8-.1c-.3-.5 0-26.3.3-26.6c.3-.4 15.2-.2 15.6.1c.4.3.5 1.6.1 1.8c-.1.1-3.1.2-6.5.3c-3.7.1-6.5.3-6.7.4c-.4.3-.4 8.2 0 9c.2.5.5.5 6 .4c3.6 0 5.8.1 6 .2c.1.2.2.7.2 1.1l-.1.9l-6 .1l-6 .1l-.1 4.8c0 2.9 0 4.8.2 4.9c.2.2 2.7.3 6.7.4c7 0 7.3.1 6.8 1.4c-.1.4-.4.7-.6.8c-.1 0-3.7.1-8 .2c-7.1.2-7.6.1-7.9-.3zm96.5.1c-.4-.4-.4-26.5.1-26.8c.1-.1 2.8-.2 6-.1c7.7.1 8.8.4 11.1 3.2c.7.8 1.2 1.9 1.6 2.9c.5 1.5.5 1.9.2 3.2c-.5 2.9-2.1 5.2-4.4 6.3c-.7.3-1.3.7-1.3 1c-.1.2 1.3 2.5 3.1 5.2c1.8 2.7 3.1 4.9 3 5.1c-.1.2-.5.4-1.4.4c-1.1 0-1.3-.1-1.8-.9c-.4-.5-.7-.9-.7-1c0-.1-.2-.5-.5-.8c-1.6-2.5-4.2-6.6-4.4-7c0-.3-.3-.7-.5-.8c-.3-.3-6.1-.7-7-.4l-.6.1l0 5.1c0 3.6-.1 5.1-.3 5.4c-.4.3-1.8.3-2.2-.1zm34.8-.1c-.4-.8-.4-26.4 0-26.7c.4-.4 1.3-.4 2-.1c.4.3.5.7.5 13.5c0 12.8-.1 13.2-.5 13.5c-.8.4-1.8.3-2-.2zm19.6.1c-.4-.4-.4-1.5-.4-13.5c0-9.4.1-13.2.3-13.3c.1-.1 3.7-.1 7.9-.1c6.8 0 7.7.1 8 .4c.2.3.3.6.3.9c0 1-.4 1.1-7.1 1.2c-3.6 0-6.6.1-6.7.2c-.1 0-.2 2.1-.2 4.5c0 3.4.1 4.6.3 4.8c.2.1 2.4.3 6.3.3c6.5.1 6.7.1 6.3 1.5l-.2.7l-6 0c-5.2 0-6.2.1-6.5.4c-.2.3-.2 1.4-.1 4.8c.1 2.4.2 4.5.3 4.6c.1.1 3.2.2 6.8.3c4.9.1 6.7.2 6.9.5c.2.3 0 1.4-.3 1.7c-.1.1-3.6.3-7.8.4c-7 .1-7.7.1-8.1-.3zm31.9 0c-.2-.2-.3-4.3-.3-13.4c0-12.2 0-13.1.4-13.4c1.2-.9 1.6-.5 7.1 7.3c3 4.2 6.7 9.4 7.3 10.1c.2.3.8 1.2 1.2 1.9c.8 1.3 1.4 1.8 1.6 1.4c.1-.1.2-4.8.2-10.3c.1-7.4.2-10.1.5-10.4c.4-.5 1.6-.4 1.9.1c.3.5.4 26.4.2 26.8c-.2.3-1.7.3-2.1-.1c-.5-.3-1.9-2.3-3.4-4.4c-.5-.8-1.3-2-1.9-2.8c-.5-.7-1.5-2.1-2.2-3.1c-1.7-2.4-2.2-3.2-3.8-5.3c-.8-.9-1.9-2.5-2.6-3.4c-.7-.9-1.4-1.6-1.5-1.6c-.2.1-.3 3.2-.3 10.2c-.1 6.9-.2 10.2-.4 10.4c-.3.4-1.6.4-1.9 0zm43.2-.2c-.2-.4-.3-3.7-.2-12c.1-6.9.1-11.7 0-11.9c-.2-.3-1-.4-4.1-.3c-2.1 0-4-.1-4.2-.2c-.2-.1-.3-.6-.2-1.2l.1-1l9.5 0l9.6-.1l.3.7c.2.7.1 1.5-.4 1.6c-.1 0-1.8 0-3.7 0c-2.1 0-3.6.1-3.8.3c-.3.2-.4 1.9-.4 12c0 10.4-.1 11.8-.4 12.2c-.6.6-1.8.6-2.1-.1zm21 .3c-.3-.2-.3-.4-.1-1.2c.4-1.2 1.3-3.8 1.6-4.4c.3-.6 2.3-6 2.7-7c.5-1.4 1-2.6 4.8-11.9c.9-2.2 1.4-2.7 2.6-2.6c1.2.1 1.6.5 2.3 2.4c.3.9 1.1 3 1.8 4.7c.7 1.7 1.5 3.7 1.8 4.5c.5 1.3.8 2.1 2 4.9c.2.7.9 2.5 1.5 4c.6 1.5 1.4 3.5 1.8 4.5c.7 1.6.7 1.7.3 2c-.6.5-1.7.4-2.2-.1c-.2-.3-.6-1-.8-1.7c-.2-.6-.4-1.3-.6-1.4c-.1-.2-.3-.8-.5-1.4c-.6-2.1-.4-2.1-7.6-1.9c-6 .1-6.3.1-6.7.6c-.3.3-.5.9-.6 1.2c-.1.4-.4 1.3-.7 2.1c-.4.8-.6 1.5-.6 1.7c0 .4-1.3 1.3-1.9 1.2c-.3 0-.7-.1-.9-.2zm37.7 0c-.4-.3-.5-1.2-.5-13.4c0-11.5.1-13.1.4-13.5c.5-.4 1.7-.5 2.1 0c.2.2.3 3.2.3 12.2c0 10 .1 11.9.4 12.2c.2.2 2 .3 6.2.2c3.2 0 6 .1 6.1.2c.4.2.4 1.7 0 2c-.5.4-14.4.4-15 .1zm30.1-.1c-.4-.5-.3-26.3.1-26.7c.2-.1 3.3-.2 8.1-.1l7.8 0l.2.7c.1.3.1.8 0 1.2l-.2.5l-6.7 0c-3.6-.1-6.7 0-6.8.1c-.2.2-.1 8.9.1 9.2c.1.1 2.7.2 5.9.2c3.2 0 6 .1 6.1.2c.4.3.7 1.2.5 1.8c-.2.5-.4.5-6.1.5c-4.3 0-6 .1-6.3.3c-.2.2-.3 1.7-.3 4.9l0 4.6l.7.2c.4.2 3.1.3 6.8.2c3.3 0 6.1.1 6.3.2c.3.2.3 1.3.1 1.8c-.2.2-2.5.3-8.1.4c-6.9.1-8 .1-8.2-.2zm-244.8-2.2c1.6-.4 4.1-2 5.4-3.4c2.1-2.2 3.6-6.2 3.2-8.5c-.8-4.7-2.8-7.6-6.4-9.6l-1.6-.8l-3.6 0c-3.3 0-3.7 0-4.8.6c-2.5 1.3-4.4 3.2-5.6 5.5c-1.5 3-1.5 7.3.1 10.4c.8 1.6 3.4 4.2 5 4.9c2.6 1.2 5.6 1.5 8.3.9zm-516.8-7.1c.3-.2.2-.5-.1-1.3c-.2-.5-.8-1.9-1.3-3c-.4-1.2-1-2.6-1.3-3.2c-.3-.6-.5-1.1-.5-1.2c0-.1-.2-.6-.4-1c-.2-.4-.6-1.4-.9-2.2c-.6-1.6-1.3-2-1.6-.8c-.1.4-.8 2.2-1.5 4.1c-.8 1.9-1.5 3.8-1.7 4.4c-.2.5-.6 1.6-.9 2.4c-.3.8-.5 1.6-.4 1.8c.2.6 10.2.6 10.6 0zm191.6 0c.2-.3.2-.6-.2-1.4c-.3-.6-.9-1.9-1.2-2.8c-.4-1-.8-1.9-.9-2c-.1-.2-.5-1.1-.9-2.1c-.3-1.1-.8-2.3-1-2.7c-.2-.4-.4-1-.5-1.4c-.2-1.1-.7-1.3-1.2-.7c-.5.8-2.5 5.9-3.4 8.6c-.4 1.3-.9 2.5-1.1 2.8c-.4.6-.5 1.6-.2 1.9c.1.1 2.4.2 5.2.2c4.3 0 5.1-.1 5.4-.4zm519.3-.1c.1-.2-.1-.9-.5-1.6c-.3-.7-.6-1.4-.6-1.6c0-.2-.2-.7-.5-1.1c-.2-.5-1.1-2.5-1.9-4.5c-.7-1.9-1.5-3.8-1.6-4.1c-.4-1.1-.9-.7-1.6 1.5c-.4 1.1-.8 2.1-.9 2.3c-.1.1-.3.7-.5 1.2c-.2.6-.5 1.2-.7 1.5c-.1.3-.3.7-.3.9c0 .2-.3.9-.6 1.6c-.4.7-.7 1.4-.7 1.7c0 .2-.1.5-.3.8c-.5.6-.5 1.6-.1 1.7c.2.1 2.7.2 5.5.2c4.9 0 5.2 0 5.3-.5zm-553.3-3.7c1.7-1.2 2.1-1.6 2.7-2.7c1-2.1.4-5.5-1.3-7c-1.5-1.4-2.3-1.6-6.7-1.6c-2.3 0-4.3 0-4.5.1c-.3.2-.4 10.8-.1 11.5c.1.3.8.4 4.5.4l4.3 0l1.1-.7zm68.5-.3c1-.3 2.4-1.9 3-3.2c.9-2.1.4-4.5-1.3-6.2c-1.4-1.4-1.9-1.6-7.1-1.6c-2.7-.1-4.9 0-5.1.1c-.3.2-.3 1.3-.3 5.1c.1 2.7.2 5.2.3 5.5c.1.4.4.5 1.4.6c2 .2 8.4 0 9.1-.3zm177.9.2c1.9-.4 3.2-1.4 4-3.1c.6-1.6.7-2.8.2-4.4c-.5-1.2-2.1-3-3.3-3.5c-.3-.1-2.7-.3-5.2-.3c-3.9-.2-4.6-.1-4.9.2c-.2.3-.3 1.7-.3 5.3c0 2.7.1 5.1.2 5.4c.1.2.3.5.5.5c1.3.2 7.6.2 8.8-.1zm150.5.1c2.4-.3 3.7-1.1 4.6-3.1c1.5-3 .4-6.2-2.6-7.8c-1-.5-1.4-.5-5.7-.5c-2.5.1-4.6.2-4.8.2c-.3.3-.3 10.7.1 11.1c.4.4 5.6.4 8.4.1z"/></symbol>
</svg>
